<svg width="71" height="70" viewBox="0 0 71 70" fill="none" xmlns="http://www.w3.org/2000/svg">
<circle cx="36" cy="35" r="35" fill="#D9D9D9"/>
<path d="M1.17 40V31.472H6.084V32.382H2.249V35.268H5.499V36.178H2.249V40H1.17ZM7.48983 40V33.682H8.55583V40H7.48983ZM8.03583 32.382C7.82783 32.382 7.65016 32.317 7.50283 32.187C7.36416 32.057 7.29483 31.8923 7.29483 31.693C7.29483 31.485 7.36416 31.3203 7.50283 31.199C7.65016 31.069 7.82783 31.004 8.03583 31.004C8.24383 31.004 8.41716 31.069 8.55583 31.199C8.70316 31.3203 8.77683 31.485 8.77683 31.693C8.77683 31.8923 8.70316 32.057 8.55583 32.187C8.41716 32.317 8.24383 32.382 8.03583 32.382ZM10.689 40V33.682H11.573L11.664 34.592H11.703C12.0064 34.2887 12.3227 34.0373 12.652 33.838C12.99 33.63 13.38 33.526 13.822 33.526C14.4894 33.526 14.9747 33.734 15.278 34.15C15.59 34.566 15.746 35.1813 15.746 35.996V40H14.68V36.139C14.68 35.541 14.5847 35.112 14.394 34.852C14.2034 34.5833 13.9 34.449 13.484 34.449C13.1547 34.449 12.8644 34.5313 12.613 34.696C12.3617 34.8607 12.0757 35.1033 11.755 35.424V40H10.689ZM19.9564 40.156C19.1591 40.156 18.5221 39.87 18.0454 39.298C17.5774 38.726 17.3434 37.9113 17.3434 36.854C17.3434 36.3427 17.4171 35.8833 17.5644 35.476C17.7204 35.06 17.9241 34.709 18.1754 34.423C18.4268 34.137 18.7171 33.916 19.0464 33.76C19.3758 33.604 19.7224 33.526 20.0864 33.526C20.4504 33.526 20.7668 33.591 21.0354 33.721C21.3041 33.851 21.5771 34.0287 21.8544 34.254L21.8024 33.175V30.744H22.8814V40H21.9974L21.9064 39.259H21.8674C21.6161 39.5017 21.3258 39.714 20.9964 39.896C20.6758 40.0693 20.3291 40.156 19.9564 40.156ZM20.1904 39.259C20.4851 39.259 20.7624 39.1897 21.0224 39.051C21.2824 38.9037 21.5424 38.6827 21.8024 38.388V35.086C21.5338 34.8433 21.2738 34.6743 21.0224 34.579C20.7798 34.475 20.5284 34.423 20.2684 34.423C20.0171 34.423 19.7788 34.4837 19.5534 34.605C19.3368 34.7177 19.1461 34.8823 18.9814 35.099C18.8168 35.307 18.6868 35.5583 18.5914 35.853C18.4961 36.1477 18.4484 36.477 18.4484 36.841C18.4484 37.6037 18.6001 38.1973 18.9034 38.622C19.2068 39.0467 19.6358 39.259 20.1904 39.259ZM29.1849 35.229L28.7819 36.529H31.3429L30.9399 35.229C30.7839 34.7523 30.6366 34.28 30.4979 33.812C30.3592 33.3353 30.2206 32.85 30.0819 32.356H30.0299C29.8999 32.85 29.7656 33.3353 29.6269 33.812C29.4882 34.28 29.3409 34.7523 29.1849 35.229ZM26.5849 40L29.4709 31.472H30.6929L33.5789 40H32.4219L31.6159 37.4H28.5089L27.6899 40H26.5849ZM34.7872 40V31.472H37.2182C37.6949 31.472 38.1282 31.5153 38.5182 31.602C38.9169 31.6887 39.2549 31.8317 39.5322 32.031C39.8095 32.2217 40.0262 32.4773 40.1822 32.798C40.3382 33.1187 40.4162 33.513 40.4162 33.981C40.4162 34.4317 40.3382 34.8217 40.1822 35.151C40.0349 35.4803 39.8225 35.7533 39.5452 35.97C39.2679 36.1867 38.9342 36.3513 38.5442 36.464C38.1629 36.568 37.7382 36.62 37.2702 36.62H35.8662V40H34.7872ZM35.8662 35.736H37.1402C37.8855 35.736 38.4359 35.5973 38.7912 35.32C39.1552 35.034 39.3372 34.5877 39.3372 33.981C39.3372 33.3657 39.1465 32.941 38.7652 32.707C38.3925 32.4643 37.8335 32.343 37.0882 32.343H35.8662V35.736ZM42.1505 40V31.472H43.2295V40H42.1505ZM48.246 40V34.553H47.388V33.747L48.246 33.682V32.681C48.246 32.031 48.3934 31.5197 48.688 31.147C48.9914 30.7743 49.4594 30.588 50.092 30.588C50.2914 30.588 50.4777 30.6097 50.651 30.653C50.833 30.6877 50.9977 30.7353 51.145 30.796L50.911 31.615C50.677 31.511 50.4387 31.459 50.196 31.459C49.6067 31.459 49.312 31.8663 49.312 32.681V33.682H50.651V34.553H49.312V40H48.246ZM51.8599 40V33.682H52.9259V40H51.8599ZM52.4059 32.382C52.1979 32.382 52.0203 32.317 51.8729 32.187C51.7343 32.057 51.6649 31.8923 51.6649 31.693C51.6649 31.485 51.7343 31.3203 51.8729 31.199C52.0203 31.069 52.1979 31.004 52.4059 31.004C52.6139 31.004 52.7873 31.069 52.9259 31.199C53.0733 31.3203 53.1469 31.485 53.1469 31.693C53.1469 31.8923 53.0733 32.057 52.9259 32.187C52.7873 32.317 52.6139 32.382 52.4059 32.382ZM57.6202 40.156C57.1955 40.156 56.7968 40.0823 56.4242 39.935C56.0602 39.779 55.7395 39.5623 55.4622 39.285C55.1935 38.999 54.9812 38.6523 54.8252 38.245C54.6692 37.8377 54.5912 37.374 54.5912 36.854C54.5912 36.334 54.6692 35.8703 54.8252 35.463C54.9898 35.047 55.2022 34.696 55.4622 34.41C55.7308 34.124 56.0342 33.9073 56.3722 33.76C56.7102 33.604 57.0612 33.526 57.4252 33.526C57.8238 33.526 58.1792 33.5953 58.4912 33.734C58.8118 33.8727 59.0762 34.072 59.2842 34.332C59.5008 34.592 59.6655 34.904 59.7782 35.268C59.8908 35.632 59.9472 36.0393 59.9472 36.49C59.9472 36.6027 59.9428 36.7153 59.9342 36.828C59.9342 36.932 59.9255 37.023 59.9082 37.101H55.6442C55.6875 37.777 55.8955 38.3143 56.2682 38.713C56.6495 39.103 57.1435 39.298 57.7502 39.298C58.0535 39.298 58.3308 39.2547 58.5822 39.168C58.8422 39.0727 59.0892 38.9513 59.3232 38.804L59.7002 39.506C59.4228 39.6793 59.1152 39.831 58.7772 39.961C58.4392 40.091 58.0535 40.156 57.6202 40.156ZM55.6312 36.334H59.0112C59.0112 35.6927 58.8725 35.2073 58.5952 34.878C58.3265 34.54 57.9452 34.371 57.4512 34.371C57.2258 34.371 57.0092 34.4143 56.8012 34.501C56.6018 34.5877 56.4198 34.7177 56.2552 34.891C56.0905 35.0557 55.9518 35.2593 55.8392 35.502C55.7352 35.7447 55.6658 36.022 55.6312 36.334ZM62.6394 40.156C62.232 40.156 61.9417 40.0347 61.7684 39.792C61.595 39.5493 61.5084 39.194 61.5084 38.726V30.744H62.5744V38.804C62.5744 38.9773 62.6047 39.0987 62.6654 39.168C62.726 39.2373 62.7954 39.272 62.8734 39.272C62.908 39.272 62.9384 39.272 62.9644 39.272C62.999 39.272 63.0467 39.2633 63.1074 39.246L63.2504 40.052C63.181 40.0867 63.0987 40.1127 63.0034 40.13C62.908 40.1473 62.7867 40.156 62.6394 40.156ZM66.9799 40.156C66.1825 40.156 65.5455 39.87 65.0689 39.298C64.6009 38.726 64.3669 37.9113 64.3669 36.854C64.3669 36.3427 64.4405 35.8833 64.5879 35.476C64.7439 35.06 64.9475 34.709 65.1989 34.423C65.4502 34.137 65.7405 33.916 66.0699 33.76C66.3992 33.604 66.7459 33.526 67.1099 33.526C67.4739 33.526 67.7902 33.591 68.0589 33.721C68.3275 33.851 68.6005 34.0287 68.8779 34.254L68.8259 33.175V30.744H69.9049V40H69.0209L68.9299 39.259H68.8909C68.6395 39.5017 68.3492 39.714 68.0199 39.896C67.6992 40.0693 67.3525 40.156 66.9799 40.156ZM67.2139 39.259C67.5085 39.259 67.7859 39.1897 68.0459 39.051C68.3059 38.9037 68.5659 38.6827 68.8259 38.388V35.086C68.5572 34.8433 68.2972 34.6743 68.0459 34.579C67.8032 34.475 67.5519 34.423 67.2919 34.423C67.0405 34.423 66.8022 34.4837 66.5769 34.605C66.3602 34.7177 66.1695 34.8823 66.0049 35.099C65.8402 35.307 65.7102 35.5583 65.6149 35.853C65.5195 36.1477 65.4719 36.477 65.4719 36.841C65.4719 37.6037 65.6235 38.1973 65.9269 38.622C66.2302 39.0467 66.6592 39.259 67.2139 39.259Z" fill="black"/>
</svg>
