<svg width="95" height="72" viewBox="0 0 95 72" fill="none" xmlns="http://www.w3.org/2000/svg">
<path d="M48 22.5C45.2152 22.5 42.5445 21.3938 40.5754 19.4246C38.6062 17.4555 37.5 14.7848 37.5 12C37.5 9.21523 38.6062 6.54451 40.5754 4.57538C42.5445 2.60625 45.2152 1.5 48 1.5C50.7848 1.5 53.4555 2.60625 55.4246 4.57538C57.3938 6.54451 58.5 9.21523 58.5 12C58.5 14.7848 57.3938 17.4555 55.4246 19.4246C53.4555 21.3938 50.7848 22.5 48 22.5ZM48 24C51.1826 24 54.2348 22.7357 56.4853 20.4853C58.7357 18.2348 60 15.1826 60 12C60 8.8174 58.7357 5.76516 56.4853 3.51472C54.2348 1.26428 51.1826 0 48 0C44.8174 0 41.7652 1.26428 39.5147 3.51472C37.2643 5.76516 36 8.8174 36 12C36 15.1826 37.2643 18.2348 39.5147 20.4853C41.7652 22.7357 44.8174 24 48 24V24Z" fill="black"/>
<path d="M42.4274 18.6492C42.5997 18.7486 42.8044 18.7756 42.9965 18.7241C43.1887 18.6726 43.3525 18.5469 43.4519 18.3747C43.9126 17.5762 44.5755 16.9131 45.3739 16.4523C46.1723 15.9915 47.0781 15.7491 47.9999 15.7497C49.9424 15.7497 51.6389 16.8042 52.5479 18.3747C52.6481 18.5455 52.8118 18.6698 53.0032 18.7205C53.1947 18.7711 53.3984 18.7439 53.57 18.6449C53.7415 18.5459 53.8669 18.383 53.9187 18.1919C53.9706 18.0007 53.9448 17.7968 53.8469 17.6247C53.2546 16.5981 52.4024 15.7457 51.3759 15.1533C50.3495 14.5608 49.1851 14.2491 47.9999 14.2497C46.8148 14.2494 45.6506 14.5612 44.6242 15.1537C43.5978 15.7461 42.7455 16.5983 42.1529 17.6247C42.0535 17.7969 42.0265 18.0016 42.078 18.1938C42.1295 18.3859 42.2552 18.5497 42.4274 18.6492ZM52.9139 6.07917C53.0021 6.03414 53.0983 6.00701 53.1969 5.99933C53.2956 5.99165 53.3949 6.00358 53.4889 6.03444C53.583 6.06529 53.67 6.11445 53.7449 6.17909C53.8199 6.24373 53.8813 6.32257 53.9256 6.41106C53.97 6.49955 53.9964 6.59594 54.0033 6.69468C54.0102 6.79342 53.9975 6.89255 53.9659 6.98636C53.9344 7.08017 53.8845 7.1668 53.8193 7.24125C53.7541 7.31571 53.6748 7.37652 53.5859 7.42017L52.0724 8.17617C52.3364 8.58117 52.4999 9.13617 52.4999 9.74967C52.4999 10.9917 51.8279 11.9997 50.9999 11.9997C50.1719 11.9997 49.4999 10.9917 49.4999 9.74967C49.4999 9.37917 49.5599 9.02967 49.6649 8.72067C49.5952 8.63319 49.5458 8.53125 49.5203 8.42228C49.4949 8.3133 49.4941 8.20003 49.518 8.0907C49.5418 7.98137 49.5897 7.87873 49.6582 7.79025C49.7267 7.70176 49.8141 7.62966 49.9139 7.57917L52.9139 6.07917V6.07917ZM43.0859 6.07917C42.9083 5.99188 42.7034 5.97833 42.5158 6.04147C42.3283 6.10461 42.1733 6.23933 42.0846 6.41627C41.9959 6.5932 41.9808 6.79801 42.0425 6.98605C42.1042 7.1741 42.2377 7.33014 42.4139 7.42017L43.9274 8.17617C43.6379 8.64922 43.4896 9.19515 43.4999 9.74967C43.4999 10.9917 44.1719 11.9997 44.9999 11.9997C45.8279 11.9997 46.4999 10.9917 46.4999 9.74967C46.4999 9.37917 46.4399 9.02967 46.3349 8.72067C46.4047 8.63319 46.4541 8.53125 46.4795 8.42228C46.5049 8.3133 46.5058 8.20003 46.4819 8.0907C46.4581 7.98137 46.4102 7.87873 46.3417 7.79025C46.2732 7.70176 46.1858 7.62966 46.0859 7.57917L43.0859 6.07917V6.07917Z" fill="black"/>
<path d="M20.6911 45L17.1211 33.848H18.6341L20.4191 39.866C20.6231 40.5347 20.7988 41.1523 20.9461 41.719C21.1048 42.2857 21.2918 42.8977 21.5071 43.555H21.5751C21.7791 42.8977 21.9604 42.2857 22.1191 41.719C22.2778 41.1523 22.4534 40.5347 22.6461 39.866L24.4311 33.848H25.8761L22.3401 45H20.6911ZM30.3641 45.204C29.8088 45.204 29.2874 45.1077 28.8001 44.915C28.3241 44.711 27.9048 44.4277 27.5421 44.065C27.1908 43.691 26.9131 43.2377 26.7091 42.705C26.5051 42.1723 26.4031 41.566 26.4031 40.886C26.4031 40.206 26.5051 39.5997 26.7091 39.067C26.9244 38.523 27.2021 38.064 27.5421 37.69C27.8934 37.316 28.2901 37.0327 28.7321 36.84C29.1741 36.636 29.6331 36.534 30.1091 36.534C30.6304 36.534 31.0951 36.6247 31.5031 36.806C31.9224 36.9873 32.2681 37.248 32.5401 37.588C32.8234 37.928 33.0388 38.336 33.1861 38.812C33.3334 39.288 33.4071 39.8207 33.4071 40.41C33.4071 40.5573 33.4014 40.7047 33.3901 40.852C33.3901 40.988 33.3788 41.107 33.3561 41.209H27.7801C27.8368 42.093 28.1088 42.7957 28.5961 43.317C29.0948 43.827 29.7408 44.082 30.5341 44.082C30.9308 44.082 31.2934 44.0253 31.6221 43.912C31.9621 43.7873 32.2851 43.6287 32.5911 43.436L33.0841 44.354C32.7214 44.5807 32.3191 44.779 31.8771 44.949C31.4351 45.119 30.9308 45.204 30.3641 45.204ZM27.7631 40.206H32.1831C32.1831 39.3673 32.0018 38.7327 31.6391 38.302C31.2878 37.86 30.7891 37.639 30.1431 37.639C29.8484 37.639 29.5651 37.6957 29.2931 37.809C29.0324 37.9223 28.7944 38.0923 28.5791 38.319C28.3638 38.5343 28.1824 38.8007 28.0351 39.118C27.8991 39.4353 27.8084 39.798 27.7631 40.206ZM35.4487 45V36.738H36.6047L36.7237 38.234H36.7747C37.058 37.7127 37.398 37.299 37.7947 36.993C38.2027 36.687 38.6447 36.534 39.1207 36.534C39.4494 36.534 39.744 36.5907 40.0047 36.704L39.7327 37.928C39.5967 37.8827 39.472 37.8487 39.3587 37.826C39.2454 37.8033 39.1037 37.792 38.9337 37.792C38.5824 37.792 38.214 37.9337 37.8287 38.217C37.4547 38.5003 37.126 38.9933 36.8427 39.696V45H35.4487ZM41.9099 48.553C41.7172 48.553 41.5415 48.536 41.3829 48.502C41.2242 48.4793 41.0769 48.4397 40.9409 48.383L41.2129 47.278C41.3035 47.3007 41.4055 47.3233 41.5189 47.346C41.6322 47.38 41.7399 47.397 41.8419 47.397C42.3179 47.397 42.7032 47.227 42.9979 46.887C43.3039 46.5583 43.5419 46.139 43.7119 45.629L43.8989 45.017L40.5839 36.738H42.0289L43.7119 41.311C43.8365 41.6737 43.9669 42.059 44.1029 42.467C44.2502 42.8637 44.3862 43.2547 44.5109 43.64H44.5789C44.7035 43.266 44.8225 42.875 44.9359 42.467C45.0492 42.059 45.1625 41.6737 45.2759 41.311L46.7549 36.738H48.1149L45.0039 45.68C44.8565 46.088 44.6922 46.4677 44.5109 46.819C44.3295 47.1703 44.1142 47.4707 43.8649 47.72C43.6155 47.9807 43.3322 48.1847 43.0149 48.332C42.6975 48.4793 42.3292 48.553 41.9099 48.553ZM56.7678 45.204C56.3824 45.204 55.9801 45.1133 55.5608 44.932C55.1528 44.7393 54.7674 44.4787 54.4048 44.15H54.3538L54.2348 45H53.1128V32.896H54.5068V36.194L54.4728 37.69C54.8468 37.3613 55.2548 37.0893 55.6968 36.874C56.1388 36.6473 56.5921 36.534 57.0568 36.534C57.5894 36.534 58.0598 36.636 58.4678 36.84C58.8758 37.0327 59.2158 37.316 59.4878 37.69C59.7711 38.0527 59.9808 38.4947 60.1168 39.016C60.2641 39.526 60.3378 40.0983 60.3378 40.733C60.3378 41.4357 60.2414 42.0647 60.0488 42.62C59.8561 43.1753 59.5954 43.6457 59.2668 44.031C58.9381 44.4163 58.5584 44.711 58.1278 44.915C57.6971 45.1077 57.2438 45.204 56.7678 45.204ZM56.5298 44.031C56.8698 44.031 57.1814 43.9573 57.4648 43.81C57.7594 43.6513 58.0088 43.436 58.2128 43.164C58.4281 42.8807 58.5924 42.535 58.7058 42.127C58.8304 41.719 58.8928 41.26 58.8928 40.75C58.8928 40.2967 58.8531 39.883 58.7738 39.509C58.6944 39.135 58.5641 38.8177 58.3828 38.557C58.2128 38.285 57.9861 38.0753 57.7028 37.928C57.4308 37.7807 57.1021 37.707 56.7167 37.707C56.0481 37.707 55.3114 38.081 54.5068 38.829V43.164C54.8694 43.4813 55.2264 43.708 55.5778 43.844C55.9404 43.9687 56.2578 44.031 56.5298 44.031ZM64.1808 45.204C63.4895 45.204 62.9115 45 62.4468 44.592C61.9935 44.184 61.7668 43.606 61.7668 42.858C61.7668 41.9513 62.1691 41.26 62.9738 40.784C63.7785 40.2967 65.0648 39.9567 66.8328 39.764C66.8328 39.5033 66.8045 39.2483 66.7478 38.999C66.7025 38.7497 66.6175 38.5287 66.4928 38.336C66.3681 38.1433 66.1925 37.9903 65.9658 37.877C65.7505 37.7523 65.4728 37.69 65.1328 37.69C64.6568 37.69 64.2091 37.7807 63.7898 37.962C63.3705 38.1433 62.9965 38.3473 62.6678 38.574L62.1238 37.605C62.5091 37.3557 62.9795 37.1177 63.5348 36.891C64.0901 36.653 64.7021 36.534 65.3708 36.534C66.3795 36.534 67.1105 36.8457 67.5638 37.469C68.0171 38.081 68.2438 38.9027 68.2438 39.934V45H67.0878L66.9688 44.014H66.9178C66.5211 44.3427 66.0961 44.626 65.6428 44.864C65.1895 45.0907 64.7021 45.204 64.1808 45.204ZM64.5888 44.082C64.9855 44.082 65.3595 43.9913 65.7108 43.81C66.0621 43.6173 66.4361 43.3397 66.8328 42.977V40.682C66.1415 40.7727 65.5578 40.8803 65.0818 41.005C64.6171 41.1297 64.2375 41.277 63.9428 41.447C63.6595 41.617 63.4498 41.8153 63.3138 42.042C63.1891 42.2573 63.1268 42.4953 63.1268 42.756C63.1268 43.232 63.2685 43.572 63.5518 43.776C63.8351 43.98 64.1808 44.082 64.5888 44.082ZM73.6652 45.204C72.6226 45.204 71.7896 44.83 71.1662 44.082C70.5542 43.334 70.2482 42.2687 70.2482 40.886C70.2482 40.2173 70.3446 39.6167 70.5372 39.084C70.7412 38.54 71.0076 38.081 71.3362 37.707C71.6649 37.333 72.0446 37.044 72.4752 36.84C72.9059 36.636 73.3592 36.534 73.8352 36.534C74.3112 36.534 74.7249 36.619 75.0762 36.789C75.4276 36.959 75.7846 37.1913 76.1472 37.486L76.0792 36.075V32.896H77.4902V45H76.3342L76.2152 44.031H76.1642C75.8356 44.3483 75.4559 44.626 75.0252 44.864C74.6059 45.0907 74.1526 45.204 73.6652 45.204ZM73.9712 44.031C74.3566 44.031 74.7192 43.9403 75.0592 43.759C75.3992 43.5663 75.7392 43.2773 76.0792 42.892V38.574C75.7279 38.2567 75.3879 38.0357 75.0592 37.911C74.7419 37.775 74.4132 37.707 74.0732 37.707C73.7446 37.707 73.4329 37.7863 73.1382 37.945C72.8549 38.0923 72.6056 38.3077 72.3902 38.591C72.1749 38.863 72.0049 39.1917 71.8802 39.577C71.7556 39.9623 71.6932 40.393 71.6932 40.869C71.6932 41.8663 71.8916 42.6427 72.2882 43.198C72.6849 43.7533 73.2459 44.031 73.9712 44.031Z" fill="black"/>
</svg>
