<svg width="62" height="50" viewBox="0 0 62 50" fill="none" xmlns="http://www.w3.org/2000/svg">
<path d="M31 22.5C28.2152 22.5 25.5445 21.3938 23.5754 19.4246C21.6062 17.4555 20.5 14.7848 20.5 12C20.5 9.21523 21.6062 6.54451 23.5754 4.57538C25.5445 2.60625 28.2152 1.5 31 1.5C33.7848 1.5 36.4555 2.60625 38.4246 4.57538C40.3938 6.54451 41.5 9.21523 41.5 12C41.5 14.7848 40.3938 17.4555 38.4246 19.4246C36.4555 21.3938 33.7848 22.5 31 22.5ZM31 24C34.1826 24 37.2348 22.7357 39.4853 20.4853C41.7357 18.2348 43 15.1826 43 12C43 8.8174 41.7357 5.76516 39.4853 3.51472C37.2348 1.26428 34.1826 0 31 0C27.8174 0 24.7652 1.26428 22.5147 3.51472C20.2643 5.76516 19 8.8174 19 12C19 15.1826 20.2643 18.2348 22.5147 20.4853C24.7652 22.7357 27.8174 24 31 24V24Z" fill="black"/>
<path d="M25.4274 18.6492C25.5997 18.7486 25.8044 18.7756 25.9965 18.7241C26.1887 18.6726 26.3525 18.5469 26.4519 18.3747C26.9126 17.5762 27.5755 16.9131 28.3739 16.4523C29.1723 15.9915 30.0781 15.7491 30.9999 15.7497C32.9424 15.7497 34.6389 16.8042 35.5479 18.3747C35.6481 18.5455 35.8118 18.6698 36.0032 18.7205C36.1947 18.7711 36.3984 18.7439 36.57 18.6449C36.7415 18.5459 36.8669 18.383 36.9187 18.1919C36.9706 18.0007 36.9448 17.7968 36.8469 17.6247C36.2546 16.5981 35.4024 15.7457 34.3759 15.1533C33.3495 14.5608 32.1851 14.2491 30.9999 14.2497C29.8148 14.2494 28.6506 14.5612 27.6242 15.1537C26.5978 15.7461 25.7455 16.5983 25.1529 17.6247C25.0535 17.7969 25.0265 18.0016 25.078 18.1938C25.1295 18.3859 25.2552 18.5497 25.4274 18.6492ZM35.9139 6.07917C36.0021 6.03414 36.0983 6.00701 36.1969 5.99933C36.2956 5.99165 36.3949 6.00358 36.4889 6.03444C36.583 6.06529 36.67 6.11445 36.7449 6.17909C36.8199 6.24373 36.8813 6.32257 36.9256 6.41106C36.97 6.49955 36.9964 6.59594 37.0033 6.69468C37.0102 6.79342 36.9975 6.89255 36.9659 6.98636C36.9344 7.08017 36.8845 7.1668 36.8193 7.24125C36.7541 7.31571 36.6748 7.37652 36.5859 7.42017L35.0724 8.17617C35.3364 8.58117 35.4999 9.13617 35.4999 9.74967C35.4999 10.9917 34.8279 11.9997 33.9999 11.9997C33.1719 11.9997 32.4999 10.9917 32.4999 9.74967C32.4999 9.37917 32.5599 9.02967 32.6649 8.72067C32.5952 8.63319 32.5458 8.53125 32.5203 8.42228C32.4949 8.3133 32.4941 8.20003 32.518 8.0907C32.5418 7.98137 32.5897 7.87873 32.6582 7.79025C32.7267 7.70176 32.8141 7.62966 32.9139 7.57917L35.9139 6.07917V6.07917ZM26.0859 6.07917C25.9083 5.99188 25.7034 5.97833 25.5158 6.04147C25.3283 6.10461 25.1733 6.23933 25.0846 6.41627C24.9959 6.5932 24.9808 6.79801 25.0425 6.98605C25.1042 7.1741 25.2377 7.33014 25.4139 7.42017L26.9274 8.17617C26.6379 8.64922 26.4896 9.19515 26.4999 9.74967C26.4999 10.9917 27.1719 11.9997 27.9999 11.9997C28.8279 11.9997 29.4999 10.9917 29.4999 9.74967C29.4999 9.37917 29.4399 9.02967 29.3349 8.72067C29.4047 8.63319 29.4541 8.53125 29.4795 8.42228C29.5049 8.3133 29.5058 8.20003 29.4819 8.0907C29.4581 7.98137 29.4102 7.87873 29.3417 7.79025C29.2732 7.70176 29.1858 7.62966 29.0859 7.57917L26.0859 6.07917V6.07917Z" fill="black"/>
<path d="M3.69109 45L0.121094 33.848H1.63409L3.41909 39.866C3.62309 40.5347 3.79876 41.1523 3.94609 41.719C4.10476 42.2857 4.29176 42.8977 4.50709 43.555H4.57509C4.77909 42.8977 4.96043 42.2857 5.11909 41.719C5.27776 41.1523 5.45343 40.5347 5.64609 39.866L7.43109 33.848H8.87609L5.34009 45H3.69109ZM13.3641 45.204C12.8088 45.204 12.2874 45.1077 11.8001 44.915C11.3241 44.711 10.9048 44.4277 10.5421 44.065C10.1908 43.691 9.91309 43.2377 9.70909 42.705C9.50509 42.1723 9.40309 41.566 9.40309 40.886C9.40309 40.206 9.50509 39.5997 9.70909 39.067C9.92443 38.523 10.2021 38.064 10.5421 37.69C10.8934 37.316 11.2901 37.0327 11.7321 36.84C12.1741 36.636 12.6331 36.534 13.1091 36.534C13.6304 36.534 14.0951 36.6247 14.5031 36.806C14.9224 36.9873 15.2681 37.248 15.5401 37.588C15.8234 37.928 16.0388 38.336 16.1861 38.812C16.3334 39.288 16.4071 39.8207 16.4071 40.41C16.4071 40.5573 16.4014 40.7047 16.3901 40.852C16.3901 40.988 16.3788 41.107 16.3561 41.209H10.7801C10.8368 42.093 11.1088 42.7957 11.5961 43.317C12.0948 43.827 12.7408 44.082 13.5341 44.082C13.9308 44.082 14.2934 44.0253 14.6221 43.912C14.9621 43.7873 15.2851 43.6287 15.5911 43.436L16.0841 44.354C15.7214 44.5807 15.3191 44.779 14.8771 44.949C14.4351 45.119 13.9308 45.204 13.3641 45.204ZM10.7631 40.206H15.1831C15.1831 39.3673 15.0018 38.7327 14.6391 38.302C14.2878 37.86 13.7891 37.639 13.1431 37.639C12.8484 37.639 12.5651 37.6957 12.2931 37.809C12.0324 37.9223 11.7944 38.0923 11.5791 38.319C11.3638 38.5343 11.1824 38.8007 11.0351 39.118C10.8991 39.4353 10.8084 39.798 10.7631 40.206ZM18.4487 45V36.738H19.6047L19.7237 38.234H19.7747C20.058 37.7127 20.398 37.299 20.7947 36.993C21.2027 36.687 21.6447 36.534 22.1207 36.534C22.4494 36.534 22.744 36.5907 23.0047 36.704L22.7327 37.928C22.5967 37.8827 22.472 37.8487 22.3587 37.826C22.2454 37.8033 22.1037 37.792 21.9337 37.792C21.5824 37.792 21.214 37.9337 20.8287 38.217C20.4547 38.5003 20.126 38.9933 19.8427 39.696V45H18.4487ZM24.9099 48.553C24.7172 48.553 24.5415 48.536 24.3829 48.502C24.2242 48.4793 24.0769 48.4397 23.9409 48.383L24.2129 47.278C24.3035 47.3007 24.4055 47.3233 24.5189 47.346C24.6322 47.38 24.7399 47.397 24.8419 47.397C25.3179 47.397 25.7032 47.227 25.9979 46.887C26.3039 46.5583 26.5419 46.139 26.7119 45.629L26.8989 45.017L23.5839 36.738H25.0289L26.7119 41.311C26.8365 41.6737 26.9669 42.059 27.1029 42.467C27.2502 42.8637 27.3862 43.2547 27.5109 43.64H27.5789C27.7035 43.266 27.8225 42.875 27.9359 42.467C28.0492 42.059 28.1625 41.6737 28.2759 41.311L29.7549 36.738H31.1149L28.0039 45.68C27.8565 46.088 27.6922 46.4677 27.5109 46.819C27.3295 47.1703 27.1142 47.4707 26.8649 47.72C26.6155 47.9807 26.3322 48.1847 26.0149 48.332C25.6975 48.4793 25.3292 48.553 24.9099 48.553ZM39.7678 45.204C39.3824 45.204 38.9801 45.1133 38.5608 44.932C38.1528 44.7393 37.7674 44.4787 37.4048 44.15H37.3538L37.2348 45H36.1128V32.896H37.5068V36.194L37.4728 37.69C37.8468 37.3613 38.2548 37.0893 38.6968 36.874C39.1388 36.6473 39.5921 36.534 40.0568 36.534C40.5894 36.534 41.0598 36.636 41.4678 36.84C41.8758 37.0327 42.2158 37.316 42.4878 37.69C42.7711 38.0527 42.9808 38.4947 43.1168 39.016C43.2641 39.526 43.3378 40.0983 43.3378 40.733C43.3378 41.4357 43.2414 42.0647 43.0488 42.62C42.8561 43.1753 42.5954 43.6457 42.2668 44.031C41.9381 44.4163 41.5584 44.711 41.1278 44.915C40.6971 45.1077 40.2438 45.204 39.7678 45.204ZM39.5298 44.031C39.8698 44.031 40.1814 43.9573 40.4648 43.81C40.7594 43.6513 41.0088 43.436 41.2128 43.164C41.4281 42.8807 41.5924 42.535 41.7058 42.127C41.8304 41.719 41.8928 41.26 41.8928 40.75C41.8928 40.2967 41.8531 39.883 41.7738 39.509C41.6944 39.135 41.5641 38.8177 41.3828 38.557C41.2128 38.285 40.9861 38.0753 40.7028 37.928C40.4308 37.7807 40.1021 37.707 39.7167 37.707C39.0481 37.707 38.3114 38.081 37.5068 38.829V43.164C37.8694 43.4813 38.2264 43.708 38.5778 43.844C38.9404 43.9687 39.2578 44.031 39.5298 44.031ZM47.1808 45.204C46.4895 45.204 45.9115 45 45.4468 44.592C44.9935 44.184 44.7668 43.606 44.7668 42.858C44.7668 41.9513 45.1691 41.26 45.9738 40.784C46.7785 40.2967 48.0648 39.9567 49.8328 39.764C49.8328 39.5033 49.8045 39.2483 49.7478 38.999C49.7025 38.7497 49.6175 38.5287 49.4928 38.336C49.3681 38.1433 49.1925 37.9903 48.9658 37.877C48.7505 37.7523 48.4728 37.69 48.1328 37.69C47.6568 37.69 47.2091 37.7807 46.7898 37.962C46.3705 38.1433 45.9965 38.3473 45.6678 38.574L45.1238 37.605C45.5091 37.3557 45.9795 37.1177 46.5348 36.891C47.0901 36.653 47.7021 36.534 48.3708 36.534C49.3795 36.534 50.1105 36.8457 50.5638 37.469C51.0171 38.081 51.2438 38.9027 51.2438 39.934V45H50.0878L49.9688 44.014H49.9178C49.5211 44.3427 49.0961 44.626 48.6428 44.864C48.1895 45.0907 47.7021 45.204 47.1808 45.204ZM47.5888 44.082C47.9855 44.082 48.3595 43.9913 48.7108 43.81C49.0621 43.6173 49.4361 43.3397 49.8328 42.977V40.682C49.1415 40.7727 48.5578 40.8803 48.0818 41.005C47.6171 41.1297 47.2375 41.277 46.9428 41.447C46.6595 41.617 46.4498 41.8153 46.3138 42.042C46.1891 42.2573 46.1268 42.4953 46.1268 42.756C46.1268 43.232 46.2685 43.572 46.5518 43.776C46.8351 43.98 47.1808 44.082 47.5888 44.082ZM56.6652 45.204C55.6226 45.204 54.7896 44.83 54.1662 44.082C53.5542 43.334 53.2482 42.2687 53.2482 40.886C53.2482 40.2173 53.3446 39.6167 53.5372 39.084C53.7412 38.54 54.0076 38.081 54.3362 37.707C54.6649 37.333 55.0446 37.044 55.4752 36.84C55.9059 36.636 56.3592 36.534 56.8352 36.534C57.3112 36.534 57.7249 36.619 58.0762 36.789C58.4276 36.959 58.7846 37.1913 59.1472 37.486L59.0792 36.075V32.896H60.4902V45H59.3342L59.2152 44.031H59.1642C58.8356 44.3483 58.4559 44.626 58.0252 44.864C57.6059 45.0907 57.1526 45.204 56.6652 45.204ZM56.9712 44.031C57.3566 44.031 57.7192 43.9403 58.0592 43.759C58.3992 43.5663 58.7392 43.2773 59.0792 42.892V38.574C58.7279 38.2567 58.3879 38.0357 58.0592 37.911C57.7419 37.775 57.4132 37.707 57.0732 37.707C56.7446 37.707 56.4329 37.7863 56.1382 37.945C55.8549 38.0923 55.6056 38.3077 55.3902 38.591C55.1749 38.863 55.0049 39.1917 54.8802 39.577C54.7556 39.9623 54.6932 40.393 54.6932 40.869C54.6932 41.8663 54.8916 42.6427 55.2882 43.198C55.6849 43.7533 56.2459 44.031 56.9712 44.031Z" fill="black"/>
</svg>
