<svg width="71" height="51" viewBox="0 0 71 51" fill="none" xmlns="http://www.w3.org/2000/svg">
<path d="M29.741 9.1125C29.8085 8.67 30.2495 8.25 30.872 8.25C31.4945 8.25 31.9355 8.67 32.003 9.1125C32.0144 9.21266 32.046 9.30949 32.0957 9.39719C32.1454 9.4849 32.2123 9.56167 32.2924 9.62294C32.3724 9.6842 32.464 9.7287 32.5617 9.75376C32.6593 9.77882 32.761 9.78394 32.8607 9.76881C32.9604 9.75368 33.056 9.7186 33.1418 9.66569C33.2276 9.61277 33.3019 9.54309 33.3602 9.46083C33.4184 9.37856 33.4595 9.28539 33.481 9.18688C33.5024 9.08837 33.5038 8.98655 33.485 8.8875C33.2945 7.635 32.156 6.75 30.872 6.75C29.588 6.75 28.4495 7.635 28.259 8.8875C28.2402 8.98655 28.2416 9.08837 28.263 9.18688C28.2845 9.28539 28.3256 9.37856 28.3838 9.46083C28.4421 9.54309 28.5164 9.61277 28.6022 9.66569C28.688 9.7186 28.7836 9.75368 28.8833 9.76881C28.9829 9.78394 29.0846 9.77882 29.1823 9.75376C29.28 9.7287 29.3715 9.6842 29.4516 9.62294C29.5317 9.56167 29.5986 9.4849 29.6483 9.39719C29.698 9.30949 29.7295 9.21266 29.741 9.1125Z" fill="black"/>
<path d="M39.122 8.25C38.4995 8.25 38.06 8.67 37.991 9.1125C37.9548 9.30323 37.8461 9.47249 37.6877 9.58471C37.5293 9.69692 37.3335 9.74334 37.1416 9.7142C36.9496 9.68506 36.7765 9.58263 36.6585 9.42846C36.5405 9.27429 36.487 9.08037 36.509 8.8875C36.6995 7.635 37.838 6.75 39.122 6.75C40.406 6.75 41.5445 7.635 41.735 8.8875C41.7571 9.08037 41.7035 9.27429 41.5855 9.42846C41.4675 9.58263 41.2944 9.68506 41.1024 9.7142C40.9105 9.74334 40.7148 9.69692 40.5563 9.58471C40.3979 9.47249 40.2892 9.30323 40.253 9.1125C40.184 8.67 39.7445 8.25 39.122 8.25V8.25Z" fill="black"/>
<path d="M28.2425 12C28.1379 12.0001 28.0345 12.0221 27.9389 12.0646C27.8433 12.1071 27.7576 12.1691 27.6874 12.2467C27.6172 12.3242 27.564 12.4156 27.5312 12.5149C27.4984 12.6143 27.4868 12.7194 27.497 12.8235C27.854 16.488 30.731 19.5 34.9925 19.5C39.254 19.5 42.1325 16.488 42.4895 12.8235C42.4998 12.7193 42.4881 12.614 42.4552 12.5146C42.4223 12.4151 42.369 12.3237 42.2986 12.2461C42.2283 12.1685 42.1424 12.1065 42.0466 12.0642C41.9509 12.0218 41.8473 11.9999 41.7425 12H28.2425V12ZM34.9925 18C31.871 18 29.7185 16.0455 29.1245 13.5H40.862C40.2665 16.0455 38.1155 18 34.9925 18Z" fill="black"/>
<path d="M35 0C31.8174 0 28.7652 1.26428 26.5147 3.51472C24.2643 5.76516 23 8.8174 23 12C23 15.1826 24.2643 18.2348 26.5147 20.4853C28.7652 22.7357 31.8174 24 35 24C38.1826 24 41.2348 22.7357 43.4853 20.4853C45.7357 18.2348 47 15.1826 47 12C47 8.8174 45.7357 5.76516 43.4853 3.51472C41.2348 1.26428 38.1826 0 35 0V0ZM24.5 12C24.5 10.6211 24.7716 9.25574 25.2993 7.98182C25.8269 6.70791 26.6004 5.55039 27.5754 4.57538C28.5504 3.60036 29.7079 2.82694 30.9818 2.29926C32.2557 1.77159 33.6211 1.5 35 1.5C36.3789 1.5 37.7443 1.77159 39.0182 2.29926C40.2921 2.82694 41.4496 3.60036 42.4246 4.57538C43.3996 5.55039 44.1731 6.70791 44.7007 7.98182C45.2284 9.25574 45.5 10.6211 45.5 12C45.5 14.7848 44.3938 17.4555 42.4246 19.4246C40.4555 21.3938 37.7848 22.5 35 22.5C32.2152 22.5 29.5445 21.3938 27.5754 19.4246C25.6062 17.4555 24.5 14.7848 24.5 12Z" fill="black"/>
<path d="M3.67547 46L0.105469 34.848H1.61847L3.40347 40.866C3.60747 41.5347 3.78314 42.1523 3.93047 42.719C4.08914 43.2857 4.27614 43.8977 4.49147 44.555H4.55947C4.76347 43.8977 4.9448 43.2857 5.10347 42.719C5.26214 42.1523 5.4378 41.5347 5.63047 40.866L7.41547 34.848H8.86047L5.32447 46H3.67547ZM13.3485 46.204C12.7931 46.204 12.2718 46.1077 11.7845 45.915C11.3085 45.711 10.8891 45.4277 10.5265 45.065C10.1751 44.691 9.89747 44.2377 9.69347 43.705C9.48947 43.1723 9.38747 42.566 9.38747 41.886C9.38747 41.206 9.48947 40.5997 9.69347 40.067C9.9088 39.523 10.1865 39.064 10.5265 38.69C10.8778 38.316 11.2745 38.0327 11.7165 37.84C12.1585 37.636 12.6175 37.534 13.0935 37.534C13.6148 37.534 14.0795 37.6247 14.4875 37.806C14.9068 37.9873 15.2525 38.248 15.5245 38.588C15.8078 38.928 16.0231 39.336 16.1705 39.812C16.3178 40.288 16.3915 40.8207 16.3915 41.41C16.3915 41.5573 16.3858 41.7047 16.3745 41.852C16.3745 41.988 16.3631 42.107 16.3405 42.209H10.7645C10.8211 43.093 11.0931 43.7957 11.5805 44.317C12.0791 44.827 12.7251 45.082 13.5185 45.082C13.9151 45.082 14.2778 45.0253 14.6065 44.912C14.9465 44.7873 15.2695 44.6287 15.5755 44.436L16.0685 45.354C15.7058 45.5807 15.3035 45.779 14.8615 45.949C14.4195 46.119 13.9151 46.204 13.3485 46.204ZM10.7475 41.206H15.1675C15.1675 40.3673 14.9861 39.7327 14.6235 39.302C14.2721 38.86 13.7735 38.639 13.1275 38.639C12.8328 38.639 12.5495 38.6957 12.2775 38.809C12.0168 38.9223 11.7788 39.0923 11.5635 39.319C11.3481 39.5343 11.1668 39.8007 11.0195 40.118C10.8835 40.4353 10.7928 40.798 10.7475 41.206ZM18.4331 46V37.738H19.5891L19.7081 39.234H19.7591C20.0424 38.7127 20.3824 38.299 20.7791 37.993C21.1871 37.687 21.6291 37.534 22.1051 37.534C22.4337 37.534 22.7284 37.5907 22.9891 37.704L22.7171 38.928C22.5811 38.8827 22.4564 38.8487 22.3431 38.826C22.2297 38.8033 22.0881 38.792 21.9181 38.792C21.5667 38.792 21.1984 38.9337 20.8131 39.217C20.4391 39.5003 20.1104 39.9933 19.8271 40.696V46H18.4331ZM24.8943 49.553C24.7016 49.553 24.5259 49.536 24.3673 49.502C24.2086 49.4793 24.0613 49.4397 23.9253 49.383L24.1973 48.278C24.2879 48.3007 24.3899 48.3233 24.5033 48.346C24.6166 48.38 24.7243 48.397 24.8263 48.397C25.3023 48.397 25.6876 48.227 25.9823 47.887C26.2883 47.5583 26.5263 47.139 26.6963 46.629L26.8833 46.017L23.5683 37.738H25.0133L26.6963 42.311C26.8209 42.6737 26.9513 43.059 27.0873 43.467C27.2346 43.8637 27.3706 44.2547 27.4953 44.64H27.5633C27.6879 44.266 27.8069 43.875 27.9203 43.467C28.0336 43.059 28.1469 42.6737 28.2603 42.311L29.7393 37.738H31.0993L27.9883 46.68C27.8409 47.088 27.6766 47.4677 27.4953 47.819C27.3139 48.1703 27.0986 48.4707 26.8493 48.72C26.5999 48.9807 26.3166 49.1847 25.9993 49.332C25.6819 49.4793 25.3136 49.553 24.8943 49.553ZM38.8851 49.808C38.3751 49.808 37.9105 49.757 37.4911 49.655C37.0718 49.5643 36.7091 49.4227 36.4031 49.23C36.1085 49.0373 35.8761 48.805 35.7061 48.533C35.5475 48.261 35.4681 47.9437 35.4681 47.581C35.4681 47.2297 35.5758 46.8953 35.7911 46.578C36.0065 46.2607 36.3011 45.9717 36.6751 45.711V45.643C36.4711 45.5183 36.2955 45.3483 36.1481 45.133C36.0121 44.9063 35.9441 44.6287 35.9441 44.3C35.9441 43.9487 36.0405 43.6427 36.2331 43.382C36.4258 43.1213 36.6298 42.9173 36.8451 42.77V42.702C36.5731 42.4753 36.3238 42.175 36.0971 41.801C35.8818 41.4157 35.7741 40.9737 35.7741 40.475C35.7741 40.0217 35.8535 39.6137 36.0121 39.251C36.1821 38.8883 36.4088 38.5823 36.6921 38.333C36.9755 38.0723 37.3041 37.874 37.6781 37.738C38.0635 37.602 38.4658 37.534 38.8851 37.534C39.1118 37.534 39.3215 37.5567 39.5141 37.602C39.7181 37.636 39.8995 37.6813 40.0581 37.738H42.9311V38.809H41.2311C41.4238 39.0017 41.5825 39.2453 41.7071 39.54C41.8431 39.8347 41.9111 40.1577 41.9111 40.509C41.9111 40.951 41.8318 41.3533 41.6731 41.716C41.5145 42.0673 41.2991 42.3677 41.0271 42.617C40.7551 42.855 40.4321 43.042 40.0581 43.178C39.6955 43.314 39.3045 43.382 38.8851 43.382C38.6811 43.382 38.4715 43.3593 38.2561 43.314C38.0408 43.2573 37.8368 43.1837 37.6441 43.093C37.4968 43.2177 37.3721 43.3593 37.2701 43.518C37.1681 43.6653 37.1171 43.8523 37.1171 44.079C37.1171 44.3397 37.2191 44.555 37.4231 44.725C37.6271 44.895 38.0125 44.98 38.5791 44.98H40.1771C41.1405 44.98 41.8601 45.1387 42.3361 45.456C42.8235 45.762 43.0671 46.2607 43.0671 46.952C43.0671 47.3373 42.9708 47.7 42.7781 48.04C42.5855 48.3913 42.3078 48.6973 41.9451 48.958C41.5825 49.2187 41.1405 49.4227 40.6191 49.57C40.1091 49.7287 39.5311 49.808 38.8851 49.808ZM38.8851 42.447C39.1231 42.447 39.3441 42.4017 39.5481 42.311C39.7635 42.2203 39.9505 42.09 40.1091 41.92C40.2791 41.75 40.4095 41.546 40.5001 41.308C40.5908 41.0587 40.6361 40.781 40.6361 40.475C40.6361 39.863 40.4661 39.3927 40.1261 39.064C39.7861 38.724 39.3725 38.554 38.8851 38.554C38.3978 38.554 37.9841 38.724 37.6441 39.064C37.3041 39.3927 37.1341 39.863 37.1341 40.475C37.1341 40.781 37.1795 41.0587 37.2701 41.308C37.3608 41.546 37.4855 41.75 37.6441 41.92C37.8141 42.09 38.0011 42.2203 38.2051 42.311C38.4205 42.4017 38.6471 42.447 38.8851 42.447ZM39.0891 48.839C39.4858 48.839 39.8428 48.788 40.1601 48.686C40.4888 48.5953 40.7665 48.4707 40.9931 48.312C41.2198 48.1647 41.3955 47.989 41.5201 47.785C41.6448 47.581 41.7071 47.3713 41.7071 47.156C41.7071 46.7707 41.5655 46.5043 41.2821 46.357C40.9988 46.2097 40.5851 46.136 40.0411 46.136H38.6131C38.4545 46.136 38.2788 46.1247 38.0861 46.102C37.9048 46.0907 37.7235 46.0567 37.5421 46C37.2475 46.2153 37.0321 46.442 36.8961 46.68C36.7601 46.918 36.6921 47.156 36.6921 47.394C36.6921 47.836 36.9018 48.1873 37.3211 48.448C37.7518 48.7087 38.3411 48.839 39.0891 48.839ZM47.6441 46.204C47.1341 46.204 46.6468 46.1077 46.1821 45.915C45.7288 45.7223 45.3264 45.4447 44.9751 45.082C44.6238 44.708 44.3404 44.2547 44.1251 43.722C43.9211 43.178 43.8191 42.566 43.8191 41.886C43.8191 41.1947 43.9211 40.5827 44.1251 40.05C44.3404 39.506 44.6238 39.047 44.9751 38.673C45.3264 38.299 45.7288 38.0157 46.1821 37.823C46.6468 37.6303 47.1341 37.534 47.6441 37.534C48.1541 37.534 48.6358 37.6303 49.0891 37.823C49.5538 38.0157 49.9618 38.299 50.3131 38.673C50.6644 39.047 50.9421 39.506 51.1461 40.05C51.3614 40.5827 51.4691 41.1947 51.4691 41.886C51.4691 42.566 51.3614 43.178 51.1461 43.722C50.9421 44.2547 50.6644 44.708 50.3131 45.082C49.9618 45.4447 49.5538 45.7223 49.0891 45.915C48.6358 46.1077 48.1541 46.204 47.6441 46.204ZM47.6441 45.048C47.9954 45.048 48.3184 44.9743 48.6131 44.827C48.9078 44.6683 49.1571 44.453 49.3611 44.181C49.5764 43.8977 49.7408 43.5633 49.8541 43.178C49.9674 42.7927 50.0241 42.362 50.0241 41.886C50.0241 41.41 49.9674 40.9793 49.8541 40.594C49.7408 40.1973 49.5764 39.8573 49.3611 39.574C49.1571 39.2907 48.9078 39.0753 48.6131 38.928C48.3184 38.7693 47.9954 38.69 47.6441 38.69C47.2928 38.69 46.9698 38.7693 46.6751 38.928C46.3804 39.0753 46.1254 39.2907 45.9101 39.574C45.7061 39.8573 45.5474 40.1973 45.4341 40.594C45.3208 40.9793 45.2641 41.41 45.2641 41.886C45.2641 42.362 45.3208 42.7927 45.4341 43.178C45.5474 43.5633 45.7061 43.8977 45.9101 44.181C46.1254 44.453 46.3804 44.6683 46.6751 44.827C46.9698 44.9743 47.2928 45.048 47.6441 45.048ZM56.858 46.204C56.348 46.204 55.8606 46.1077 55.396 45.915C54.9426 45.7223 54.5403 45.4447 54.189 45.082C53.8376 44.708 53.5543 44.2547 53.339 43.722C53.135 43.178 53.033 42.566 53.033 41.886C53.033 41.1947 53.135 40.5827 53.339 40.05C53.5543 39.506 53.8376 39.047 54.189 38.673C54.5403 38.299 54.9426 38.0157 55.396 37.823C55.8606 37.6303 56.348 37.534 56.858 37.534C57.368 37.534 57.8496 37.6303 58.303 37.823C58.7676 38.0157 59.1756 38.299 59.527 38.673C59.8783 39.047 60.156 39.506 60.36 40.05C60.5753 40.5827 60.683 41.1947 60.683 41.886C60.683 42.566 60.5753 43.178 60.36 43.722C60.156 44.2547 59.8783 44.708 59.527 45.082C59.1756 45.4447 58.7676 45.7223 58.303 45.915C57.8496 46.1077 57.368 46.204 56.858 46.204ZM56.858 45.048C57.2093 45.048 57.5323 44.9743 57.827 44.827C58.1216 44.6683 58.371 44.453 58.575 44.181C58.7903 43.8977 58.9546 43.5633 59.068 43.178C59.1813 42.7927 59.238 42.362 59.238 41.886C59.238 41.41 59.1813 40.9793 59.068 40.594C58.9546 40.1973 58.7903 39.8573 58.575 39.574C58.371 39.2907 58.1216 39.0753 57.827 38.928C57.5323 38.7693 57.2093 38.69 56.858 38.69C56.5066 38.69 56.1836 38.7693 55.889 38.928C55.5943 39.0753 55.3393 39.2907 55.124 39.574C54.92 39.8573 54.7613 40.1973 54.648 40.594C54.5346 40.9793 54.478 41.41 54.478 41.886C54.478 42.362 54.5346 42.7927 54.648 43.178C54.7613 43.5633 54.92 43.8977 55.124 44.181C55.3393 44.453 55.5943 44.6683 55.889 44.827C56.1836 44.9743 56.5066 45.048 56.858 45.048ZM65.6808 46.204C64.6382 46.204 63.8052 45.83 63.1818 45.082C62.5698 44.334 62.2638 43.2687 62.2638 41.886C62.2638 41.2173 62.3602 40.6167 62.5528 40.084C62.7568 39.54 63.0232 39.081 63.3518 38.707C63.6805 38.333 64.0602 38.044 64.4908 37.84C64.9215 37.636 65.3748 37.534 65.8508 37.534C66.3268 37.534 66.7405 37.619 67.0918 37.789C67.4432 37.959 67.8002 38.1913 68.1628 38.486L68.0948 37.075V33.896H69.5058V46H68.3498L68.2308 45.031H68.1798C67.8512 45.3483 67.4715 45.626 67.0408 45.864C66.6215 46.0907 66.1682 46.204 65.6808 46.204ZM65.9868 45.031C66.3722 45.031 66.7348 44.9403 67.0748 44.759C67.4148 44.5663 67.7548 44.2773 68.0948 43.892V39.574C67.7435 39.2567 67.4035 39.0357 67.0748 38.911C66.7575 38.775 66.4288 38.707 66.0888 38.707C65.7602 38.707 65.4485 38.7863 65.1538 38.945C64.8705 39.0923 64.6212 39.3077 64.4058 39.591C64.1905 39.863 64.0205 40.1917 63.8958 40.577C63.7712 40.9623 63.7088 41.393 63.7088 41.869C63.7088 42.8663 63.9072 43.6427 64.3038 44.198C64.7005 44.7533 65.2615 45.031 65.9868 45.031Z" fill="black"/>
</svg>
