<svg width="28" height="50" viewBox="0 0 28 50" fill="none" xmlns="http://www.w3.org/2000/svg">
<path d="M1.53488 45V33.848H4.84988C5.41655 33.848 5.93222 33.899 6.39688 34.001C6.87288 34.103 7.27522 34.2617 7.60388 34.477C7.94388 34.6923 8.20455 34.9757 8.38588 35.327C8.57855 35.667 8.67488 36.0807 8.67488 36.568C8.67488 37.1233 8.53322 37.6277 8.24988 38.081C7.97788 38.523 7.57555 38.829 7.04288 38.999V39.067C7.72288 39.1917 8.27255 39.475 8.69188 39.917C9.11122 40.359 9.32088 40.9653 9.32088 41.736C9.32088 42.28 9.21888 42.756 9.01488 43.164C8.81088 43.572 8.52188 43.912 8.14788 44.184C7.77388 44.456 7.32622 44.66 6.80488 44.796C6.28355 44.932 5.71122 45 5.08788 45H1.53488ZM2.94588 38.591H4.59488C5.54688 38.591 6.23255 38.4267 6.65188 38.098C7.07122 37.7693 7.28088 37.3217 7.28088 36.755C7.28088 36.109 7.05988 35.65 6.61788 35.378C6.18722 35.106 5.53555 34.97 4.66288 34.97H2.94588V38.591ZM2.94588 43.878H4.88388C5.84722 43.878 6.59522 43.7023 7.12788 43.351C7.66055 42.9883 7.92688 42.433 7.92688 41.685C7.92688 40.9937 7.66622 40.4893 7.14488 40.172C6.62355 39.8433 5.86988 39.679 4.88388 39.679H2.94588V43.878ZM13.297 45.204C12.6057 45.204 12.0277 45 11.563 44.592C11.1097 44.184 10.883 43.606 10.883 42.858C10.883 41.9513 11.2854 41.26 12.09 40.784C12.8947 40.2967 14.181 39.9567 15.949 39.764C15.949 39.5033 15.9207 39.2483 15.864 38.999C15.8187 38.7497 15.7337 38.5287 15.609 38.336C15.4844 38.1433 15.3087 37.9903 15.082 37.877C14.8667 37.7523 14.589 37.69 14.249 37.69C13.773 37.69 13.3254 37.7807 12.906 37.962C12.4867 38.1433 12.1127 38.3473 11.784 38.574L11.24 37.605C11.6254 37.3557 12.0957 37.1177 12.651 36.891C13.2064 36.653 13.8184 36.534 14.487 36.534C15.4957 36.534 16.2267 36.8457 16.68 37.469C17.1334 38.081 17.36 38.9027 17.36 39.934V45H16.204L16.085 44.014H16.034C15.6374 44.3427 15.2124 44.626 14.759 44.864C14.3057 45.0907 13.8184 45.204 13.297 45.204ZM13.705 44.082C14.1017 44.082 14.4757 43.9913 14.827 43.81C15.1784 43.6173 15.5524 43.3397 15.949 42.977V40.682C15.2577 40.7727 14.674 40.8803 14.198 41.005C13.7334 41.1297 13.3537 41.277 13.059 41.447C12.7757 41.617 12.566 41.8153 12.43 42.042C12.3054 42.2573 12.243 42.4953 12.243 42.756C12.243 43.232 12.3847 43.572 12.668 43.776C12.9514 43.98 13.297 44.082 13.705 44.082ZM22.7814 45.204C21.7388 45.204 20.9058 44.83 20.2824 44.082C19.6704 43.334 19.3644 42.2687 19.3644 40.886C19.3644 40.2173 19.4608 39.6167 19.6534 39.084C19.8574 38.54 20.1238 38.081 20.4524 37.707C20.7811 37.333 21.1608 37.044 21.5914 36.84C22.0221 36.636 22.4754 36.534 22.9514 36.534C23.4274 36.534 23.8411 36.619 24.1924 36.789C24.5438 36.959 24.9008 37.1913 25.2634 37.486L25.1954 36.075V32.896H26.6064V45H25.4504L25.3314 44.031H25.2804C24.9518 44.3483 24.5721 44.626 24.1414 44.864C23.7221 45.0907 23.2688 45.204 22.7814 45.204ZM23.0874 44.031C23.4728 44.031 23.8354 43.9403 24.1754 43.759C24.5154 43.5663 24.8554 43.2773 25.1954 42.892V38.574C24.8441 38.2567 24.5041 38.0357 24.1754 37.911C23.8581 37.775 23.5294 37.707 23.1894 37.707C22.8608 37.707 22.5491 37.7863 22.2544 37.945C21.9711 38.0923 21.7218 38.3077 21.5064 38.591C21.2911 38.863 21.1211 39.1917 20.9964 39.577C20.8718 39.9623 20.8094 40.393 20.8094 40.869C20.8094 41.8663 21.0078 42.6427 21.4044 43.198C21.8011 43.7533 22.3621 44.031 23.0874 44.031Z" fill="black"/>
<path d="M10.25 11.25C10.6478 11.25 11.0294 11.092 11.3107 10.8107C11.592 10.5294 11.75 10.1478 11.75 9.75C11.75 9.35218 11.592 8.97064 11.3107 8.68934C11.0294 8.40804 10.6478 8.25 10.25 8.25C9.85218 8.25 9.47064 8.40804 9.18934 8.68934C8.90804 8.97064 8.75 9.35218 8.75 9.75C8.75 10.1478 8.90804 10.5294 9.18934 10.8107C9.47064 11.092 9.85218 11.25 10.25 11.25Z" fill="black"/>
<path d="M19.25 9.75C19.25 10.1478 19.092 10.5294 18.8107 10.8107C18.5294 11.092 18.1478 11.25 17.75 11.25C17.3522 11.25 16.9706 11.092 16.6893 10.8107C16.408 10.5294 16.25 10.1478 16.25 9.75C16.25 9.35218 16.408 8.97064 16.6893 8.68934C16.9706 8.40804 17.3522 8.25 17.75 8.25C18.1478 8.25 18.5294 8.40804 18.8107 8.68934C19.092 8.97064 19.25 9.35218 19.25 9.75V9.75Z" fill="black"/>
<path d="M19.3429 17.085C19.1884 17.2085 18.9914 17.2659 18.7948 17.2449C18.5981 17.2238 18.4177 17.1259 18.2929 16.9725L18.2884 16.968C18.2234 16.8961 18.1549 16.8275 18.0829 16.7625C17.8491 16.552 17.5942 16.366 17.3224 16.2075C16.6309 15.8025 15.5419 15.375 14.0029 15.375C12.4639 15.375 11.3734 15.801 10.6789 16.209C10.4067 16.3676 10.1514 16.5536 9.91692 16.764C9.8445 16.829 9.77541 16.8975 9.70992 16.9695L9.70542 16.974C9.64337 17.0505 9.56686 17.1141 9.48024 17.161C9.39363 17.208 9.29862 17.2374 9.20063 17.2477C9.10264 17.2579 9.0036 17.2487 8.90915 17.2207C8.8147 17.1927 8.7267 17.1463 8.65017 17.0842C8.57364 17.0222 8.51009 16.9457 8.46313 16.8591C8.41617 16.7725 8.38674 16.6774 8.3765 16.5795C8.36626 16.4815 8.37542 16.3824 8.40346 16.288C8.4315 16.1935 8.47787 16.1055 8.53992 16.029L9.12492 16.5L8.53992 16.0305V16.029L8.54292 16.0275L8.54592 16.0245L8.55342 16.0155L8.57442 15.9885L8.64792 15.9075C8.70792 15.843 8.79492 15.7545 8.90892 15.6525C9.13692 15.4455 9.47142 15.1785 9.91992 14.916C10.8199 14.3865 12.1699 13.875 14.0029 13.875C15.8344 13.875 17.1829 14.385 18.0829 14.916C18.5329 15.18 18.8659 15.4455 19.0924 15.651C19.2095 15.7579 19.3207 15.871 19.4254 15.99L19.4479 16.0155L19.4554 16.0245L19.4584 16.029C19.4584 16.029 19.4599 16.032 18.8749 16.5L19.4599 16.032C19.5838 16.1872 19.6411 16.3853 19.6192 16.5827C19.5972 16.7801 19.4979 16.9607 19.3429 17.085V17.085Z" fill="black"/>
<path d="M14 0C10.8174 0 7.76516 1.26428 5.51472 3.51472C3.26428 5.76516 2 8.8174 2 12C2 15.1826 3.26428 18.2348 5.51472 20.4853C7.76516 22.7357 10.8174 24 14 24C17.1826 24 20.2348 22.7357 22.4853 20.4853C24.7357 18.2348 26 15.1826 26 12C26 8.8174 24.7357 5.76516 22.4853 3.51472C20.2348 1.26428 17.1826 0 14 0V0ZM3.5 12C3.5 10.6211 3.77159 9.25574 4.29927 7.98182C4.82694 6.70791 5.60036 5.55039 6.57538 4.57538C7.55039 3.60036 8.70791 2.82694 9.98182 2.29926C11.2557 1.77159 12.6211 1.5 14 1.5C15.3789 1.5 16.7443 1.77159 18.0182 2.29926C19.2921 2.82694 20.4496 3.60036 21.4246 4.57538C22.3996 5.55039 23.1731 6.70791 23.7007 7.98182C24.2284 9.25574 24.5 10.6211 24.5 12C24.5 14.7848 23.3938 17.4555 21.4246 19.4246C19.4555 21.3938 16.7848 22.5 14 22.5C11.2152 22.5 8.54451 21.3938 6.57538 19.4246C4.60625 17.4555 3.5 14.7848 3.5 12Z" fill="black"/>
</svg>
