<svg width="39" height="50" viewBox="0 0 39 50" fill="none" xmlns="http://www.w3.org/2000/svg">
<path d="M19 22.5C16.2152 22.5 13.5445 21.3938 11.5754 19.4246C9.60625 17.4555 8.5 14.7848 8.5 12C8.5 9.21523 9.60625 6.54451 11.5754 4.57538C13.5445 2.60625 16.2152 1.5 19 1.5C21.7848 1.5 24.4555 2.60625 26.4246 4.57538C28.3938 6.54451 29.5 9.21523 29.5 12C29.5 14.7848 28.3938 17.4555 26.4246 19.4246C24.4555 21.3938 21.7848 22.5 19 22.5ZM19 24C22.1826 24 25.2348 22.7357 27.4853 20.4853C29.7357 18.2348 31 15.1826 31 12C31 8.8174 29.7357 5.76516 27.4853 3.51472C25.2348 1.26428 22.1826 0 19 0C15.8174 0 12.7652 1.26428 10.5147 3.51472C8.26428 5.76516 7 8.8174 7 12C7 15.1826 8.26428 18.2348 10.5147 20.4853C12.7652 22.7357 15.8174 24 19 24V24Z" fill="black"/>
<path d="M13.4275 14.3505C13.5997 14.251 13.8044 14.2241 13.9966 14.2756C14.1887 14.3271 14.3525 14.4527 14.452 14.625C14.9126 15.4235 15.5755 16.0866 16.374 16.5474C17.1724 17.0082 18.0781 17.2505 19 17.25C19.9218 17.2505 20.8276 17.0082 21.626 16.5474C22.4244 16.0866 23.0873 15.4235 23.548 14.625C23.5969 14.539 23.6623 14.4636 23.7404 14.4029C23.8186 14.3423 23.908 14.2978 24.0035 14.2719C24.0989 14.246 24.1985 14.2392 24.2966 14.2519C24.3947 14.2647 24.4893 14.2967 24.575 14.3462C24.6606 14.3956 24.7357 14.4615 24.7957 14.5401C24.8558 14.6187 24.8998 14.7084 24.925 14.804C24.9503 14.8996 24.9564 14.9993 24.943 15.0973C24.9296 15.1953 24.897 15.2897 24.847 15.375C24.2547 16.4015 23.4024 17.2539 22.376 17.8464C21.3495 18.4389 20.1851 18.7505 19 18.75C17.8148 18.7505 16.6504 18.4389 15.624 17.8464C14.5975 17.2539 13.7453 16.4015 13.153 15.375C13.0535 15.2027 13.0266 14.998 13.078 14.8059C13.1295 14.6138 13.2552 14.45 13.4275 14.3505ZM17.5 9.75C17.5 10.992 16.828 12 16 12C15.172 12 14.5 10.992 14.5 9.75C14.5 8.508 15.172 7.5 16 7.5C16.828 7.5 17.5 8.508 17.5 9.75ZM23.5 9.75C23.5 10.992 22.828 12 22 12C21.172 12 20.5 10.992 20.5 9.75C20.5 8.508 21.172 7.5 22 7.5C22.828 7.5 23.5 8.508 23.5 9.75Z" fill="black"/>
<path d="M6.2412 45.204C5.50453 45.204 4.82453 45.0737 4.2012 44.813C3.5892 44.5523 3.0622 44.1783 2.6202 43.691C2.1782 43.1923 1.83253 42.586 1.5832 41.872C1.33386 41.1467 1.2092 40.3307 1.2092 39.424C1.2092 38.5287 1.33386 37.724 1.5832 37.01C1.84386 36.296 2.20086 35.6897 2.6542 35.191C3.10753 34.6923 3.64586 34.3127 4.2692 34.052C4.90386 33.78 5.58953 33.644 6.3262 33.644C6.71153 33.644 7.06286 33.6837 7.3802 33.763C7.70886 33.8423 8.00353 33.95 8.2642 34.086C8.5362 34.2107 8.7742 34.358 8.9782 34.528C9.19353 34.6867 9.38053 34.851 9.5392 35.021L8.7572 35.939C8.47386 35.6443 8.1452 35.395 7.7712 35.191C7.3972 34.987 6.92686 34.885 6.3602 34.885C5.79353 34.885 5.28353 34.9927 4.8302 35.208C4.37686 35.412 3.99153 35.7123 3.6742 36.109C3.35686 36.4943 3.10753 36.9647 2.9262 37.52C2.7562 38.0753 2.6712 38.6987 2.6712 39.39C2.6712 40.0927 2.75053 40.7273 2.9092 41.294C3.0792 41.8493 3.3172 42.3253 3.6232 42.722C3.94053 43.1187 4.32586 43.4247 4.7792 43.64C5.24386 43.8553 5.77653 43.963 6.3772 43.963C6.77386 43.963 7.14786 43.9063 7.4992 43.793C7.86186 43.6683 8.15653 43.504 8.3832 43.3V40.393H6.0202V39.22H9.6752V43.912C9.31253 44.286 8.83653 44.5977 8.2472 44.847C7.65786 45.085 6.9892 45.204 6.2412 45.204ZM15.4244 45.204C14.9144 45.204 14.427 45.1077 13.9624 44.915C13.509 44.7223 13.1067 44.4447 12.7554 44.082C12.404 43.708 12.1207 43.2547 11.9054 42.722C11.7014 42.178 11.5994 41.566 11.5994 40.886C11.5994 40.1947 11.7014 39.5827 11.9054 39.05C12.1207 38.506 12.404 38.047 12.7554 37.673C13.1067 37.299 13.509 37.0157 13.9624 36.823C14.427 36.6303 14.9144 36.534 15.4244 36.534C15.9344 36.534 16.416 36.6303 16.8694 36.823C17.334 37.0157 17.742 37.299 18.0934 37.673C18.4447 38.047 18.7224 38.506 18.9264 39.05C19.1417 39.5827 19.2494 40.1947 19.2494 40.886C19.2494 41.566 19.1417 42.178 18.9264 42.722C18.7224 43.2547 18.4447 43.708 18.0934 44.082C17.742 44.4447 17.334 44.7223 16.8694 44.915C16.416 45.1077 15.9344 45.204 15.4244 45.204ZM15.4244 44.048C15.7757 44.048 16.0987 43.9743 16.3934 43.827C16.688 43.6683 16.9374 43.453 17.1414 43.181C17.3567 42.8977 17.521 42.5633 17.6344 42.178C17.7477 41.7927 17.8044 41.362 17.8044 40.886C17.8044 40.41 17.7477 39.9793 17.6344 39.594C17.521 39.1973 17.3567 38.8573 17.1414 38.574C16.9374 38.2907 16.688 38.0753 16.3934 37.928C16.0987 37.7693 15.7757 37.69 15.4244 37.69C15.073 37.69 14.75 37.7693 14.4554 37.928C14.1607 38.0753 13.9057 38.2907 13.6904 38.574C13.4864 38.8573 13.3277 39.1973 13.2144 39.594C13.101 39.9793 13.0444 40.41 13.0444 40.886C13.0444 41.362 13.101 41.7927 13.2144 42.178C13.3277 42.5633 13.4864 42.8977 13.6904 43.181C13.9057 43.453 14.1607 43.6683 14.4554 43.827C14.75 43.9743 15.073 44.048 15.4244 44.048ZM24.6383 45.204C24.1283 45.204 23.6409 45.1077 23.1763 44.915C22.7229 44.7223 22.3206 44.4447 21.9693 44.082C21.6179 43.708 21.3346 43.2547 21.1193 42.722C20.9153 42.178 20.8133 41.566 20.8133 40.886C20.8133 40.1947 20.9153 39.5827 21.1193 39.05C21.3346 38.506 21.6179 38.047 21.9693 37.673C22.3206 37.299 22.7229 37.0157 23.1763 36.823C23.6409 36.6303 24.1283 36.534 24.6383 36.534C25.1483 36.534 25.6299 36.6303 26.0833 36.823C26.5479 37.0157 26.9559 37.299 27.3073 37.673C27.6586 38.047 27.9363 38.506 28.1403 39.05C28.3556 39.5827 28.4633 40.1947 28.4633 40.886C28.4633 41.566 28.3556 42.178 28.1403 42.722C27.9363 43.2547 27.6586 43.708 27.3073 44.082C26.9559 44.4447 26.5479 44.7223 26.0833 44.915C25.6299 45.1077 25.1483 45.204 24.6383 45.204ZM24.6383 44.048C24.9896 44.048 25.3126 43.9743 25.6073 43.827C25.9019 43.6683 26.1513 43.453 26.3553 43.181C26.5706 42.8977 26.7349 42.5633 26.8483 42.178C26.9616 41.7927 27.0183 41.362 27.0183 40.886C27.0183 40.41 26.9616 39.9793 26.8483 39.594C26.7349 39.1973 26.5706 38.8573 26.3553 38.574C26.1513 38.2907 25.9019 38.0753 25.6073 37.928C25.3126 37.7693 24.9896 37.69 24.6383 37.69C24.2869 37.69 23.9639 37.7693 23.6693 37.928C23.3746 38.0753 23.1196 38.2907 22.9043 38.574C22.7003 38.8573 22.5416 39.1973 22.4283 39.594C22.3149 39.9793 22.2583 40.41 22.2583 40.886C22.2583 41.362 22.3149 41.7927 22.4283 42.178C22.5416 42.5633 22.7003 42.8977 22.9043 43.181C23.1196 43.453 23.3746 43.6683 23.6693 43.827C23.9639 43.9743 24.2869 44.048 24.6383 44.048ZM33.4611 45.204C32.4185 45.204 31.5855 44.83 30.9621 44.082C30.3501 43.334 30.0441 42.2687 30.0441 40.886C30.0441 40.2173 30.1405 39.6167 30.3331 39.084C30.5371 38.54 30.8035 38.081 31.1321 37.707C31.4608 37.333 31.8405 37.044 32.2711 36.84C32.7018 36.636 33.1551 36.534 33.6311 36.534C34.1071 36.534 34.5208 36.619 34.8721 36.789C35.2235 36.959 35.5805 37.1913 35.9431 37.486L35.8751 36.075V32.896H37.2861V45H36.1301L36.0111 44.031H35.9601C35.6315 44.3483 35.2518 44.626 34.8211 44.864C34.4018 45.0907 33.9485 45.204 33.4611 45.204ZM33.7671 44.031C34.1525 44.031 34.5151 43.9403 34.8551 43.759C35.1951 43.5663 35.5351 43.2773 35.8751 42.892V38.574C35.5238 38.2567 35.1838 38.0357 34.8551 37.911C34.5378 37.775 34.2091 37.707 33.8691 37.707C33.5405 37.707 33.2288 37.7863 32.9341 37.945C32.6508 38.0923 32.4015 38.3077 32.1861 38.591C31.9708 38.863 31.8008 39.1917 31.6761 39.577C31.5515 39.9623 31.4891 40.393 31.4891 40.869C31.4891 41.8663 31.6875 42.6427 32.0841 43.198C32.4808 43.7533 33.0418 44.031 33.7671 44.031Z" fill="black"/>
</svg>
