<svg width="95" height="72" viewBox="0 0 95 72" fill="none" xmlns="http://www.w3.org/2000/svg">
<path d="M41.741 9.1125C41.8085 8.67 42.2495 8.25 42.872 8.25C43.4945 8.25 43.9355 8.67 44.003 9.1125C44.0144 9.21266 44.046 9.30949 44.0957 9.39719C44.1454 9.4849 44.2123 9.56167 44.2924 9.62294C44.3724 9.6842 44.464 9.7287 44.5617 9.75376C44.6593 9.77882 44.761 9.78394 44.8607 9.76881C44.9604 9.75368 45.056 9.7186 45.1418 9.66569C45.2276 9.61277 45.3019 9.54309 45.3602 9.46083C45.4184 9.37856 45.4595 9.28539 45.481 9.18688C45.5024 9.08837 45.5038 8.98655 45.485 8.8875C45.2945 7.635 44.156 6.75 42.872 6.75C41.588 6.75 40.4495 7.635 40.259 8.8875C40.2402 8.98655 40.2416 9.08837 40.263 9.18688C40.2845 9.28539 40.3256 9.37856 40.3838 9.46083C40.4421 9.54309 40.5164 9.61277 40.6022 9.66569C40.688 9.7186 40.7836 9.75368 40.8833 9.76881C40.9829 9.78394 41.0846 9.77882 41.1823 9.75376C41.28 9.7287 41.3715 9.6842 41.4516 9.62294C41.5317 9.56167 41.5986 9.4849 41.6483 9.39719C41.698 9.30949 41.7295 9.21266 41.741 9.1125Z" fill="black"/>
<path d="M51.122 8.25C50.4995 8.25 50.06 8.67 49.991 9.1125C49.9548 9.30323 49.8461 9.47249 49.6877 9.58471C49.5293 9.69692 49.3335 9.74334 49.1416 9.7142C48.9496 9.68506 48.7765 9.58263 48.6585 9.42846C48.5405 9.27429 48.487 9.08037 48.509 8.8875C48.6995 7.635 49.838 6.75 51.122 6.75C52.406 6.75 53.5445 7.635 53.735 8.8875C53.7571 9.08037 53.7035 9.27429 53.5855 9.42846C53.4675 9.58263 53.2944 9.68506 53.1024 9.7142C52.9105 9.74334 52.7148 9.69692 52.5563 9.58471C52.3979 9.47249 52.2892 9.30323 52.253 9.1125C52.184 8.67 51.7445 8.25 51.122 8.25V8.25Z" fill="black"/>
<path d="M40.2425 12C40.1379 12.0001 40.0345 12.0221 39.9389 12.0646C39.8433 12.1071 39.7576 12.1691 39.6874 12.2467C39.6172 12.3242 39.564 12.4156 39.5312 12.5149C39.4984 12.6143 39.4868 12.7194 39.497 12.8235C39.854 16.488 42.731 19.5 46.9925 19.5C51.254 19.5 54.1325 16.488 54.4895 12.8235C54.4998 12.7193 54.4881 12.614 54.4552 12.5146C54.4223 12.4151 54.369 12.3237 54.2986 12.2461C54.2283 12.1685 54.1424 12.1065 54.0466 12.0642C53.9509 12.0218 53.8473 11.9999 53.7425 12H40.2425V12ZM46.9925 18C43.871 18 41.7185 16.0455 41.1245 13.5H52.862C52.2665 16.0455 50.1155 18 46.9925 18Z" fill="black"/>
<path d="M47 0C43.8174 0 40.7652 1.26428 38.5147 3.51472C36.2643 5.76516 35 8.8174 35 12C35 15.1826 36.2643 18.2348 38.5147 20.4853C40.7652 22.7357 43.8174 24 47 24C50.1826 24 53.2348 22.7357 55.4853 20.4853C57.7357 18.2348 59 15.1826 59 12C59 8.8174 57.7357 5.76516 55.4853 3.51472C53.2348 1.26428 50.1826 0 47 0V0ZM36.5 12C36.5 10.6211 36.7716 9.25574 37.2993 7.98182C37.8269 6.70791 38.6004 5.55039 39.5754 4.57538C40.5504 3.60036 41.7079 2.82694 42.9818 2.29926C44.2557 1.77159 45.6211 1.5 47 1.5C48.3789 1.5 49.7443 1.77159 51.0182 2.29926C52.2921 2.82694 53.4496 3.60036 54.4246 4.57538C55.3996 5.55039 56.1731 6.70791 56.7007 7.98182C57.2284 9.25574 57.5 10.6211 57.5 12C57.5 14.7848 56.3938 17.4555 54.4246 19.4246C52.4555 21.3938 49.7848 22.5 47 22.5C44.2152 22.5 41.5445 21.3938 39.5754 19.4246C37.6062 17.4555 36.5 14.7848 36.5 12Z" fill="black"/>
<path d="M15.6755 46L12.1055 34.848H13.6185L15.4035 40.866C15.6075 41.5347 15.7831 42.1523 15.9305 42.719C16.0891 43.2857 16.2761 43.8977 16.4915 44.555H16.5595C16.7635 43.8977 16.9448 43.2857 17.1035 42.719C17.2621 42.1523 17.4378 41.5347 17.6305 40.866L19.4155 34.848H20.8605L17.3245 46H15.6755ZM25.3485 46.204C24.7931 46.204 24.2718 46.1077 23.7845 45.915C23.3085 45.711 22.8891 45.4277 22.5265 45.065C22.1751 44.691 21.8975 44.2377 21.6935 43.705C21.4895 43.1723 21.3875 42.566 21.3875 41.886C21.3875 41.206 21.4895 40.5997 21.6935 40.067C21.9088 39.523 22.1865 39.064 22.5265 38.69C22.8778 38.316 23.2745 38.0327 23.7165 37.84C24.1585 37.636 24.6175 37.534 25.0935 37.534C25.6148 37.534 26.0795 37.6247 26.4875 37.806C26.9068 37.9873 27.2525 38.248 27.5245 38.588C27.8078 38.928 28.0231 39.336 28.1705 39.812C28.3178 40.288 28.3915 40.8207 28.3915 41.41C28.3915 41.5573 28.3858 41.7047 28.3745 41.852C28.3745 41.988 28.3631 42.107 28.3405 42.209H22.7645C22.8211 43.093 23.0931 43.7957 23.5805 44.317C24.0791 44.827 24.7251 45.082 25.5185 45.082C25.9151 45.082 26.2778 45.0253 26.6065 44.912C26.9465 44.7873 27.2695 44.6287 27.5755 44.436L28.0685 45.354C27.7058 45.5807 27.3035 45.779 26.8615 45.949C26.4195 46.119 25.9151 46.204 25.3485 46.204ZM22.7475 41.206H27.1675C27.1675 40.3673 26.9861 39.7327 26.6235 39.302C26.2721 38.86 25.7735 38.639 25.1275 38.639C24.8328 38.639 24.5495 38.6957 24.2775 38.809C24.0168 38.9223 23.7788 39.0923 23.5635 39.319C23.3481 39.5343 23.1668 39.8007 23.0195 40.118C22.8835 40.4353 22.7928 40.798 22.7475 41.206ZM30.4331 46V37.738H31.5891L31.7081 39.234H31.7591C32.0424 38.7127 32.3824 38.299 32.7791 37.993C33.1871 37.687 33.6291 37.534 34.1051 37.534C34.4337 37.534 34.7284 37.5907 34.9891 37.704L34.7171 38.928C34.5811 38.8827 34.4564 38.8487 34.3431 38.826C34.2297 38.8033 34.0881 38.792 33.9181 38.792C33.5667 38.792 33.1984 38.9337 32.8131 39.217C32.4391 39.5003 32.1104 39.9933 31.8271 40.696V46H30.4331ZM36.8943 49.553C36.7016 49.553 36.5259 49.536 36.3673 49.502C36.2086 49.4793 36.0613 49.4397 35.9253 49.383L36.1973 48.278C36.2879 48.3007 36.3899 48.3233 36.5033 48.346C36.6166 48.38 36.7243 48.397 36.8263 48.397C37.3023 48.397 37.6876 48.227 37.9823 47.887C38.2883 47.5583 38.5263 47.139 38.6963 46.629L38.8833 46.017L35.5683 37.738H37.0133L38.6963 42.311C38.8209 42.6737 38.9513 43.059 39.0873 43.467C39.2346 43.8637 39.3706 44.2547 39.4953 44.64H39.5633C39.6879 44.266 39.8069 43.875 39.9203 43.467C40.0336 43.059 40.1469 42.6737 40.2603 42.311L41.7393 37.738H43.0993L39.9883 46.68C39.8409 47.088 39.6766 47.4677 39.4953 47.819C39.3139 48.1703 39.0986 48.4707 38.8493 48.72C38.5999 48.9807 38.3166 49.1847 37.9993 49.332C37.6819 49.4793 37.3136 49.553 36.8943 49.553ZM50.8851 49.808C50.3751 49.808 49.9105 49.757 49.4911 49.655C49.0718 49.5643 48.7091 49.4227 48.4031 49.23C48.1085 49.0373 47.8761 48.805 47.7061 48.533C47.5475 48.261 47.4681 47.9437 47.4681 47.581C47.4681 47.2297 47.5758 46.8953 47.7911 46.578C48.0065 46.2607 48.3011 45.9717 48.6751 45.711V45.643C48.4711 45.5183 48.2955 45.3483 48.1481 45.133C48.0121 44.9063 47.9441 44.6287 47.9441 44.3C47.9441 43.9487 48.0405 43.6427 48.2331 43.382C48.4258 43.1213 48.6298 42.9173 48.8451 42.77V42.702C48.5731 42.4753 48.3238 42.175 48.0971 41.801C47.8818 41.4157 47.7741 40.9737 47.7741 40.475C47.7741 40.0217 47.8535 39.6137 48.0121 39.251C48.1821 38.8883 48.4088 38.5823 48.6921 38.333C48.9755 38.0723 49.3041 37.874 49.6781 37.738C50.0635 37.602 50.4658 37.534 50.8851 37.534C51.1118 37.534 51.3215 37.5567 51.5141 37.602C51.7181 37.636 51.8995 37.6813 52.0581 37.738H54.9311V38.809H53.2311C53.4238 39.0017 53.5825 39.2453 53.7071 39.54C53.8431 39.8347 53.9111 40.1577 53.9111 40.509C53.9111 40.951 53.8318 41.3533 53.6731 41.716C53.5145 42.0673 53.2991 42.3677 53.0271 42.617C52.7551 42.855 52.4321 43.042 52.0581 43.178C51.6955 43.314 51.3045 43.382 50.8851 43.382C50.6811 43.382 50.4715 43.3593 50.2561 43.314C50.0408 43.2573 49.8368 43.1837 49.6441 43.093C49.4968 43.2177 49.3721 43.3593 49.2701 43.518C49.1681 43.6653 49.1171 43.8523 49.1171 44.079C49.1171 44.3397 49.2191 44.555 49.4231 44.725C49.6271 44.895 50.0125 44.98 50.5791 44.98H52.1771C53.1405 44.98 53.8601 45.1387 54.3361 45.456C54.8235 45.762 55.0671 46.2607 55.0671 46.952C55.0671 47.3373 54.9708 47.7 54.7781 48.04C54.5855 48.3913 54.3078 48.6973 53.9451 48.958C53.5825 49.2187 53.1405 49.4227 52.6191 49.57C52.1091 49.7287 51.5311 49.808 50.8851 49.808ZM50.8851 42.447C51.1231 42.447 51.3441 42.4017 51.5481 42.311C51.7635 42.2203 51.9505 42.09 52.1091 41.92C52.2791 41.75 52.4095 41.546 52.5001 41.308C52.5908 41.0587 52.6361 40.781 52.6361 40.475C52.6361 39.863 52.4661 39.3927 52.1261 39.064C51.7861 38.724 51.3725 38.554 50.8851 38.554C50.3978 38.554 49.9841 38.724 49.6441 39.064C49.3041 39.3927 49.1341 39.863 49.1341 40.475C49.1341 40.781 49.1795 41.0587 49.2701 41.308C49.3608 41.546 49.4855 41.75 49.6441 41.92C49.8141 42.09 50.0011 42.2203 50.2051 42.311C50.4205 42.4017 50.6471 42.447 50.8851 42.447ZM51.0891 48.839C51.4858 48.839 51.8428 48.788 52.1601 48.686C52.4888 48.5953 52.7665 48.4707 52.9931 48.312C53.2198 48.1647 53.3955 47.989 53.5201 47.785C53.6448 47.581 53.7071 47.3713 53.7071 47.156C53.7071 46.7707 53.5655 46.5043 53.2821 46.357C52.9988 46.2097 52.5851 46.136 52.0411 46.136H50.6131C50.4545 46.136 50.2788 46.1247 50.0861 46.102C49.9048 46.0907 49.7235 46.0567 49.5421 46C49.2475 46.2153 49.0321 46.442 48.8961 46.68C48.7601 46.918 48.6921 47.156 48.6921 47.394C48.6921 47.836 48.9018 48.1873 49.3211 48.448C49.7518 48.7087 50.3411 48.839 51.0891 48.839ZM59.6441 46.204C59.1341 46.204 58.6468 46.1077 58.1821 45.915C57.7288 45.7223 57.3264 45.4447 56.9751 45.082C56.6238 44.708 56.3404 44.2547 56.1251 43.722C55.9211 43.178 55.8191 42.566 55.8191 41.886C55.8191 41.1947 55.9211 40.5827 56.1251 40.05C56.3404 39.506 56.6238 39.047 56.9751 38.673C57.3264 38.299 57.7288 38.0157 58.1821 37.823C58.6468 37.6303 59.1341 37.534 59.6441 37.534C60.1541 37.534 60.6358 37.6303 61.0891 37.823C61.5538 38.0157 61.9618 38.299 62.3131 38.673C62.6644 39.047 62.9421 39.506 63.1461 40.05C63.3614 40.5827 63.4691 41.1947 63.4691 41.886C63.4691 42.566 63.3614 43.178 63.1461 43.722C62.9421 44.2547 62.6644 44.708 62.3131 45.082C61.9618 45.4447 61.5538 45.7223 61.0891 45.915C60.6358 46.1077 60.1541 46.204 59.6441 46.204ZM59.6441 45.048C59.9954 45.048 60.3184 44.9743 60.6131 44.827C60.9078 44.6683 61.1571 44.453 61.3611 44.181C61.5764 43.8977 61.7408 43.5633 61.8541 43.178C61.9674 42.7927 62.0241 42.362 62.0241 41.886C62.0241 41.41 61.9674 40.9793 61.8541 40.594C61.7408 40.1973 61.5764 39.8573 61.3611 39.574C61.1571 39.2907 60.9078 39.0753 60.6131 38.928C60.3184 38.7693 59.9954 38.69 59.6441 38.69C59.2928 38.69 58.9698 38.7693 58.6751 38.928C58.3804 39.0753 58.1254 39.2907 57.9101 39.574C57.7061 39.8573 57.5474 40.1973 57.4341 40.594C57.3208 40.9793 57.2641 41.41 57.2641 41.886C57.2641 42.362 57.3208 42.7927 57.4341 43.178C57.5474 43.5633 57.7061 43.8977 57.9101 44.181C58.1254 44.453 58.3804 44.6683 58.6751 44.827C58.9698 44.9743 59.2928 45.048 59.6441 45.048ZM68.858 46.204C68.348 46.204 67.8606 46.1077 67.396 45.915C66.9426 45.7223 66.5403 45.4447 66.189 45.082C65.8376 44.708 65.5543 44.2547 65.339 43.722C65.135 43.178 65.033 42.566 65.033 41.886C65.033 41.1947 65.135 40.5827 65.339 40.05C65.5543 39.506 65.8376 39.047 66.189 38.673C66.5403 38.299 66.9426 38.0157 67.396 37.823C67.8606 37.6303 68.348 37.534 68.858 37.534C69.368 37.534 69.8496 37.6303 70.303 37.823C70.7676 38.0157 71.1756 38.299 71.527 38.673C71.8783 39.047 72.156 39.506 72.36 40.05C72.5753 40.5827 72.683 41.1947 72.683 41.886C72.683 42.566 72.5753 43.178 72.36 43.722C72.156 44.2547 71.8783 44.708 71.527 45.082C71.1756 45.4447 70.7676 45.7223 70.303 45.915C69.8496 46.1077 69.368 46.204 68.858 46.204ZM68.858 45.048C69.2093 45.048 69.5323 44.9743 69.827 44.827C70.1216 44.6683 70.371 44.453 70.575 44.181C70.7903 43.8977 70.9546 43.5633 71.068 43.178C71.1813 42.7927 71.238 42.362 71.238 41.886C71.238 41.41 71.1813 40.9793 71.068 40.594C70.9546 40.1973 70.7903 39.8573 70.575 39.574C70.371 39.2907 70.1216 39.0753 69.827 38.928C69.5323 38.7693 69.2093 38.69 68.858 38.69C68.5066 38.69 68.1836 38.7693 67.889 38.928C67.5943 39.0753 67.3393 39.2907 67.124 39.574C66.92 39.8573 66.7613 40.1973 66.648 40.594C66.5346 40.9793 66.478 41.41 66.478 41.886C66.478 42.362 66.5346 42.7927 66.648 43.178C66.7613 43.5633 66.92 43.8977 67.124 44.181C67.3393 44.453 67.5943 44.6683 67.889 44.827C68.1836 44.9743 68.5066 45.048 68.858 45.048ZM77.6808 46.204C76.6382 46.204 75.8052 45.83 75.1818 45.082C74.5698 44.334 74.2638 43.2687 74.2638 41.886C74.2638 41.2173 74.3602 40.6167 74.5528 40.084C74.7568 39.54 75.0232 39.081 75.3518 38.707C75.6805 38.333 76.0602 38.044 76.4908 37.84C76.9215 37.636 77.3748 37.534 77.8508 37.534C78.3268 37.534 78.7405 37.619 79.0918 37.789C79.4432 37.959 79.8002 38.1913 80.1628 38.486L80.0948 37.075V33.896H81.5058V46H80.3498L80.2308 45.031H80.1798C79.8512 45.3483 79.4715 45.626 79.0408 45.864C78.6215 46.0907 78.1682 46.204 77.6808 46.204ZM77.9868 45.031C78.3722 45.031 78.7348 44.9403 79.0748 44.759C79.4148 44.5663 79.7548 44.2773 80.0948 43.892V39.574C79.7435 39.2567 79.4035 39.0357 79.0748 38.911C78.7575 38.775 78.4288 38.707 78.0888 38.707C77.7602 38.707 77.4485 38.7863 77.1538 38.945C76.8705 39.0923 76.6212 39.3077 76.4058 39.591C76.1905 39.863 76.0205 40.1917 75.8958 40.577C75.7712 40.9623 75.7088 41.393 75.7088 41.869C75.7088 42.8663 75.9072 43.6427 76.3038 44.198C76.7005 44.7533 77.2615 45.031 77.9868 45.031Z" fill="black"/>
</svg>
