<svg width="95" height="72" viewBox="0 0 95 72" fill="none" xmlns="http://www.w3.org/2000/svg">
<path d="M47 22.5C44.2152 22.5 41.5445 21.3938 39.5754 19.4246C37.6062 17.4555 36.5 14.7848 36.5 12C36.5 9.21523 37.6062 6.54451 39.5754 4.57538C41.5445 2.60625 44.2152 1.5 47 1.5C49.7848 1.5 52.4555 2.60625 54.4246 4.57538C56.3938 6.54451 57.5 9.21523 57.5 12C57.5 14.7848 56.3938 17.4555 54.4246 19.4246C52.4555 21.3938 49.7848 22.5 47 22.5ZM47 24C50.1826 24 53.2348 22.7357 55.4853 20.4853C57.7357 18.2348 59 15.1826 59 12C59 8.8174 57.7357 5.76516 55.4853 3.51472C53.2348 1.26428 50.1826 0 47 0C43.8174 0 40.7652 1.26428 38.5147 3.51472C36.2643 5.76516 35 8.8174 35 12C35 15.1826 36.2643 18.2348 38.5147 20.4853C40.7652 22.7357 43.8174 24 47 24V24Z" fill="black"/>
<path d="M41 15.75C41 15.9489 41.079 16.1397 41.2197 16.2803C41.3603 16.421 41.5511 16.5 41.75 16.5H52.25C52.4489 16.5 52.6397 16.421 52.7803 16.2803C52.921 16.1397 53 15.9489 53 15.75C53 15.5511 52.921 15.3603 52.7803 15.2197C52.6397 15.079 52.4489 15 52.25 15H41.75C41.5511 15 41.3603 15.079 41.2197 15.2197C41.079 15.3603 41 15.5511 41 15.75ZM45.5 9.75C45.5 8.508 44.828 7.5 44 7.5C43.172 7.5 42.5 8.508 42.5 9.75C42.5 10.992 43.172 12 44 12C44.828 12 45.5 10.992 45.5 9.75ZM51.5 9.75C51.5 8.508 50.828 7.5 50 7.5C49.172 7.5 48.5 8.508 48.5 9.75C48.5 10.992 49.172 12 50 12C50.828 12 51.5 10.992 51.5 9.75Z" fill="black"/>
<path d="M2.76145 45V33.848H4.22345L8.25245 40.852L9.45945 43.164H9.52745C9.49345 42.5973 9.45378 42.0137 9.40845 41.413C9.37445 40.801 9.35745 40.2003 9.35745 39.611V33.848H10.7004V45H9.23845L5.19245 37.979L3.98545 35.684H3.91745C3.96278 36.2507 4.00245 36.8287 4.03645 37.418C4.08178 37.996 4.10445 38.5797 4.10445 39.169V45H2.76145ZM16.9813 45.204C16.4259 45.204 15.9046 45.1077 15.4173 44.915C14.9413 44.711 14.5219 44.4277 14.1593 44.065C13.8079 43.691 13.5303 43.2377 13.3263 42.705C13.1223 42.1723 13.0203 41.566 13.0203 40.886C13.0203 40.206 13.1223 39.5997 13.3263 39.067C13.5416 38.523 13.8193 38.064 14.1593 37.69C14.5106 37.316 14.9073 37.0327 15.3493 36.84C15.7913 36.636 16.2503 36.534 16.7263 36.534C17.2476 36.534 17.7123 36.6247 18.1203 36.806C18.5396 36.9873 18.8853 37.248 19.1573 37.588C19.4406 37.928 19.6559 38.336 19.8033 38.812C19.9506 39.288 20.0243 39.8207 20.0243 40.41C20.0243 40.5573 20.0186 40.7047 20.0073 40.852C20.0073 40.988 19.9959 41.107 19.9733 41.209H14.3973C14.4539 42.093 14.7259 42.7957 15.2133 43.317C15.7119 43.827 16.3579 44.082 17.1513 44.082C17.5479 44.082 17.9106 44.0253 18.2393 43.912C18.5793 43.7873 18.9023 43.6287 19.2083 43.436L19.7013 44.354C19.3386 44.5807 18.9363 44.779 18.4943 44.949C18.0523 45.119 17.5479 45.204 16.9813 45.204ZM14.3803 40.206H18.8003C18.8003 39.3673 18.6189 38.7327 18.2563 38.302C17.9049 37.86 17.4063 37.639 16.7603 37.639C16.4656 37.639 16.1823 37.6957 15.9103 37.809C15.6496 37.9223 15.4116 38.0923 15.1963 38.319C14.9809 38.5343 14.7996 38.8007 14.6523 39.118C14.5163 39.4353 14.4256 39.798 14.3803 40.206ZM22.0659 45V36.738H23.4599V45H22.0659ZM22.7799 35.038C22.5079 35.038 22.2755 34.953 22.0829 34.783C21.9015 34.613 21.8109 34.3977 21.8109 34.137C21.8109 33.865 21.9015 33.6497 22.0829 33.491C22.2755 33.321 22.5079 33.236 22.7799 33.236C23.0519 33.236 23.2785 33.321 23.4599 33.491C23.6525 33.6497 23.7489 33.865 23.7489 34.137C23.7489 34.3977 23.6525 34.613 23.4599 34.783C23.2785 34.953 23.0519 35.038 22.7799 35.038ZM28.8505 45.204C28.4085 45.204 28.0345 45.136 27.7285 45C27.4338 44.864 27.1901 44.677 26.9975 44.439C26.8161 44.201 26.6858 43.912 26.6065 43.572C26.5271 43.232 26.4875 42.858 26.4875 42.45V37.877H25.2635V36.823L26.5555 36.738L26.7255 34.426H27.8985V36.738H30.1255V37.877H27.8985V42.467C27.8985 42.977 27.9891 43.3737 28.1705 43.657C28.3631 43.929 28.6975 44.065 29.1735 44.065C29.3208 44.065 29.4795 44.0423 29.6495 43.997C29.8195 43.9517 29.9725 43.9007 30.1085 43.844L30.3805 44.898C30.1538 44.9773 29.9045 45.0453 29.6325 45.102C29.3718 45.17 29.1111 45.204 28.8505 45.204ZM31.9936 45V32.896H33.3876V36.194L33.3366 37.894C33.7333 37.52 34.1469 37.2027 34.5776 36.942C35.0083 36.67 35.5126 36.534 36.0906 36.534C36.9633 36.534 37.5979 36.806 37.9946 37.35C38.4026 37.894 38.6066 38.6987 38.6066 39.764V45H37.2126V39.951C37.2126 39.169 37.0879 38.608 36.8386 38.268C36.5893 37.9167 36.1926 37.741 35.6486 37.741C35.2179 37.741 34.8383 37.8487 34.5096 38.064C34.1809 38.2793 33.8069 38.5967 33.3876 39.016V45H31.9936ZM44.5897 45.204C44.0343 45.204 43.513 45.1077 43.0257 44.915C42.5497 44.711 42.1303 44.4277 41.7677 44.065C41.4163 43.691 41.1387 43.2377 40.9347 42.705C40.7307 42.1723 40.6287 41.566 40.6287 40.886C40.6287 40.206 40.7307 39.5997 40.9347 39.067C41.15 38.523 41.4277 38.064 41.7677 37.69C42.119 37.316 42.5157 37.0327 42.9577 36.84C43.3997 36.636 43.8587 36.534 44.3347 36.534C44.856 36.534 45.3207 36.6247 45.7287 36.806C46.148 36.9873 46.4937 37.248 46.7657 37.588C47.049 37.928 47.2643 38.336 47.4117 38.812C47.559 39.288 47.6327 39.8207 47.6327 40.41C47.6327 40.5573 47.627 40.7047 47.6157 40.852C47.6157 40.988 47.6043 41.107 47.5817 41.209H42.0057C42.0623 42.093 42.3343 42.7957 42.8217 43.317C43.3203 43.827 43.9663 44.082 44.7597 44.082C45.1563 44.082 45.519 44.0253 45.8477 43.912C46.1877 43.7873 46.5107 43.6287 46.8167 43.436L47.3097 44.354C46.947 44.5807 46.5447 44.779 46.1027 44.949C45.6607 45.119 45.1563 45.204 44.5897 45.204ZM41.9887 40.206H46.4087C46.4087 39.3673 46.2273 38.7327 45.8647 38.302C45.5133 37.86 45.0147 37.639 44.3687 37.639C44.074 37.639 43.7907 37.6957 43.5187 37.809C43.258 37.9223 43.02 38.0923 42.8047 38.319C42.5893 38.5343 42.408 38.8007 42.2607 39.118C42.1247 39.4353 42.034 39.798 41.9887 40.206ZM49.6743 45V36.738H50.8303L50.9493 38.234H51.0003C51.2836 37.7127 51.6236 37.299 52.0203 36.993C52.4283 36.687 52.8703 36.534 53.3463 36.534C53.6749 36.534 53.9696 36.5907 54.2303 36.704L53.9583 37.928C53.8223 37.8827 53.6976 37.8487 53.5843 37.826C53.4709 37.8033 53.3293 37.792 53.1593 37.792C52.8079 37.792 52.4396 37.9337 52.0543 38.217C51.6803 38.5003 51.3516 38.9933 51.0683 39.696V45H49.6743ZM61.7591 48.808C61.2491 48.808 60.7845 48.757 60.3651 48.655C59.9458 48.5643 59.5831 48.4227 59.2771 48.23C58.9825 48.0373 58.7501 47.805 58.5801 47.533C58.4215 47.261 58.3421 46.9437 58.3421 46.581C58.3421 46.2297 58.4498 45.8953 58.6651 45.578C58.8805 45.2607 59.1751 44.9717 59.5491 44.711V44.643C59.3451 44.5183 59.1695 44.3483 59.0221 44.133C58.8861 43.9063 58.8181 43.6287 58.8181 43.3C58.8181 42.9487 58.9145 42.6427 59.1071 42.382C59.2998 42.1213 59.5038 41.9173 59.7191 41.77V41.702C59.4471 41.4753 59.1978 41.175 58.9711 40.801C58.7558 40.4157 58.6481 39.9737 58.6481 39.475C58.6481 39.0217 58.7275 38.6137 58.8861 38.251C59.0561 37.8883 59.2828 37.5823 59.5661 37.333C59.8495 37.0723 60.1781 36.874 60.5521 36.738C60.9375 36.602 61.3398 36.534 61.7591 36.534C61.9858 36.534 62.1955 36.5567 62.3881 36.602C62.5921 36.636 62.7735 36.6813 62.9321 36.738H65.8051V37.809H64.1051C64.2978 38.0017 64.4565 38.2453 64.5811 38.54C64.7171 38.8347 64.7851 39.1577 64.7851 39.509C64.7851 39.951 64.7058 40.3533 64.5471 40.716C64.3885 41.0673 64.1731 41.3677 63.9011 41.617C63.6291 41.855 63.3061 42.042 62.9321 42.178C62.5695 42.314 62.1785 42.382 61.7591 42.382C61.5551 42.382 61.3455 42.3593 61.1301 42.314C60.9148 42.2573 60.7108 42.1837 60.5181 42.093C60.3708 42.2177 60.2461 42.3593 60.1441 42.518C60.0421 42.6653 59.9911 42.8523 59.9911 43.079C59.9911 43.3397 60.0931 43.555 60.2971 43.725C60.5011 43.895 60.8865 43.98 61.4531 43.98H63.0511C64.0145 43.98 64.7341 44.1387 65.2101 44.456C65.6975 44.762 65.9411 45.2607 65.9411 45.952C65.9411 46.3373 65.8448 46.7 65.6521 47.04C65.4595 47.3913 65.1818 47.6973 64.8191 47.958C64.4565 48.2187 64.0145 48.4227 63.4931 48.57C62.9831 48.7287 62.4051 48.808 61.7591 48.808ZM61.7591 41.447C61.9971 41.447 62.2181 41.4017 62.4221 41.311C62.6375 41.2203 62.8245 41.09 62.9831 40.92C63.1531 40.75 63.2835 40.546 63.3741 40.308C63.4648 40.0587 63.5101 39.781 63.5101 39.475C63.5101 38.863 63.3401 38.3927 63.0001 38.064C62.6601 37.724 62.2465 37.554 61.7591 37.554C61.2718 37.554 60.8581 37.724 60.5181 38.064C60.1781 38.3927 60.0081 38.863 60.0081 39.475C60.0081 39.781 60.0535 40.0587 60.1441 40.308C60.2348 40.546 60.3595 40.75 60.5181 40.92C60.6881 41.09 60.8751 41.2203 61.0791 41.311C61.2945 41.4017 61.5211 41.447 61.7591 41.447ZM61.9631 47.839C62.3598 47.839 62.7168 47.788 63.0341 47.686C63.3628 47.5953 63.6405 47.4707 63.8671 47.312C64.0938 47.1647 64.2695 46.989 64.3941 46.785C64.5188 46.581 64.5811 46.3713 64.5811 46.156C64.5811 45.7707 64.4395 45.5043 64.1561 45.357C63.8728 45.2097 63.4591 45.136 62.9151 45.136H61.4871C61.3285 45.136 61.1528 45.1247 60.9601 45.102C60.7788 45.0907 60.5975 45.0567 60.4161 45C60.1215 45.2153 59.9061 45.442 59.7701 45.68C59.6341 45.918 59.5661 46.156 59.5661 46.394C59.5661 46.836 59.7758 47.1873 60.1951 47.448C60.6258 47.7087 61.2151 47.839 61.9631 47.839ZM70.5181 45.204C70.0081 45.204 69.5208 45.1077 69.0561 44.915C68.6028 44.7223 68.2005 44.4447 67.8491 44.082C67.4978 43.708 67.2145 43.2547 66.9991 42.722C66.7951 42.178 66.6931 41.566 66.6931 40.886C66.6931 40.1947 66.7951 39.5827 66.9991 39.05C67.2145 38.506 67.4978 38.047 67.8491 37.673C68.2005 37.299 68.6028 37.0157 69.0561 36.823C69.5208 36.6303 70.0081 36.534 70.5181 36.534C71.0281 36.534 71.5098 36.6303 71.9631 36.823C72.4278 37.0157 72.8358 37.299 73.1871 37.673C73.5385 38.047 73.8161 38.506 74.0201 39.05C74.2355 39.5827 74.3431 40.1947 74.3431 40.886C74.3431 41.566 74.2355 42.178 74.0201 42.722C73.8161 43.2547 73.5385 43.708 73.1871 44.082C72.8358 44.4447 72.4278 44.7223 71.9631 44.915C71.5098 45.1077 71.0281 45.204 70.5181 45.204ZM70.5181 44.048C70.8695 44.048 71.1925 43.9743 71.4871 43.827C71.7818 43.6683 72.0311 43.453 72.2351 43.181C72.4505 42.8977 72.6148 42.5633 72.7281 42.178C72.8415 41.7927 72.8981 41.362 72.8981 40.886C72.8981 40.41 72.8415 39.9793 72.7281 39.594C72.6148 39.1973 72.4505 38.8573 72.2351 38.574C72.0311 38.2907 71.7818 38.0753 71.4871 37.928C71.1925 37.7693 70.8695 37.69 70.5181 37.69C70.1668 37.69 69.8438 37.7693 69.5491 37.928C69.2545 38.0753 68.9995 38.2907 68.7841 38.574C68.5801 38.8573 68.4215 39.1973 68.3081 39.594C68.1948 39.9793 68.1381 40.41 68.1381 40.886C68.1381 41.362 68.1948 41.7927 68.3081 42.178C68.4215 42.5633 68.5801 42.8977 68.7841 43.181C68.9995 43.453 69.2545 43.6683 69.5491 43.827C69.8438 43.9743 70.1668 44.048 70.5181 44.048ZM79.732 45.204C79.222 45.204 78.7347 45.1077 78.27 44.915C77.8167 44.7223 77.4143 44.4447 77.063 44.082C76.7117 43.708 76.4283 43.2547 76.213 42.722C76.009 42.178 75.907 41.566 75.907 40.886C75.907 40.1947 76.009 39.5827 76.213 39.05C76.4283 38.506 76.7117 38.047 77.063 37.673C77.4143 37.299 77.8167 37.0157 78.27 36.823C78.7347 36.6303 79.222 36.534 79.732 36.534C80.242 36.534 80.7237 36.6303 81.177 36.823C81.6417 37.0157 82.0497 37.299 82.401 37.673C82.7523 38.047 83.03 38.506 83.234 39.05C83.4493 39.5827 83.557 40.1947 83.557 40.886C83.557 41.566 83.4493 42.178 83.234 42.722C83.03 43.2547 82.7523 43.708 82.401 44.082C82.0497 44.4447 81.6417 44.7223 81.177 44.915C80.7237 45.1077 80.242 45.204 79.732 45.204ZM79.732 44.048C80.0833 44.048 80.4063 43.9743 80.701 43.827C80.9957 43.6683 81.245 43.453 81.449 43.181C81.6643 42.8977 81.8287 42.5633 81.942 42.178C82.0553 41.7927 82.112 41.362 82.112 40.886C82.112 40.41 82.0553 39.9793 81.942 39.594C81.8287 39.1973 81.6643 38.8573 81.449 38.574C81.245 38.2907 80.9957 38.0753 80.701 37.928C80.4063 37.7693 80.0833 37.69 79.732 37.69C79.3807 37.69 79.0577 37.7693 78.763 37.928C78.4683 38.0753 78.2133 38.2907 77.998 38.574C77.794 38.8573 77.6353 39.1973 77.522 39.594C77.4087 39.9793 77.352 40.41 77.352 40.886C77.352 41.362 77.4087 41.7927 77.522 42.178C77.6353 42.5633 77.794 42.8977 77.998 43.181C78.2133 43.453 78.4683 43.6683 78.763 43.827C79.0577 43.9743 79.3807 44.048 79.732 44.048ZM88.5549 45.204C87.5122 45.204 86.6792 44.83 86.0559 44.082C85.4439 43.334 85.1379 42.2687 85.1379 40.886C85.1379 40.2173 85.2342 39.6167 85.4269 39.084C85.6309 38.54 85.8972 38.081 86.2259 37.707C86.5545 37.333 86.9342 37.044 87.3649 36.84C87.7955 36.636 88.2489 36.534 88.7249 36.534C89.2009 36.534 89.6145 36.619 89.9659 36.789C90.3172 36.959 90.6742 37.1913 91.0369 37.486L90.9689 36.075V32.896H92.3799V45H91.2239L91.1049 44.031H91.0539C90.7252 44.3483 90.3455 44.626 89.9149 44.864C89.4955 45.0907 89.0422 45.204 88.5549 45.204ZM88.8609 44.031C89.2462 44.031 89.6089 43.9403 89.9489 43.759C90.2889 43.5663 90.6289 43.2773 90.9689 42.892V38.574C90.6175 38.2567 90.2775 38.0357 89.9489 37.911C89.6315 37.775 89.3029 37.707 88.9629 37.707C88.6342 37.707 88.3225 37.7863 88.0279 37.945C87.7445 38.0923 87.4952 38.3077 87.2799 38.591C87.0645 38.863 86.8945 39.1917 86.7699 39.577C86.6452 39.9623 86.5829 40.393 86.5829 40.869C86.5829 41.8663 86.7812 42.6427 87.1779 43.198C87.5745 43.7533 88.1355 44.031 88.8609 44.031ZM21.4101 67V58.738H22.5661L22.6851 59.928H22.7361C23.1328 59.5313 23.5464 59.2027 23.9771 58.942C24.4191 58.67 24.9291 58.534 25.5071 58.534C26.3798 58.534 27.0144 58.806 27.4111 59.35C27.8191 59.894 28.0231 60.6987 28.0231 61.764V67H26.6291V61.951C26.6291 61.169 26.5044 60.608 26.2551 60.268C26.0058 59.9167 25.6091 59.741 25.0651 59.741C24.6344 59.741 24.2548 59.8487 23.9261 60.064C23.5974 60.2793 23.2234 60.5967 22.8041 61.016V67H21.4101ZM33.92 67.204C33.41 67.204 32.9227 67.1077 32.458 66.915C32.0047 66.7223 31.6023 66.4447 31.251 66.082C30.8997 65.708 30.6163 65.2547 30.401 64.722C30.197 64.178 30.095 63.566 30.095 62.886C30.095 62.1947 30.197 61.5827 30.401 61.05C30.6163 60.506 30.8997 60.047 31.251 59.673C31.6023 59.299 32.0047 59.0157 32.458 58.823C32.9227 58.6303 33.41 58.534 33.92 58.534C34.43 58.534 34.9117 58.6303 35.365 58.823C35.8297 59.0157 36.2377 59.299 36.589 59.673C36.9403 60.047 37.218 60.506 37.422 61.05C37.6373 61.5827 37.745 62.1947 37.745 62.886C37.745 63.566 37.6373 64.178 37.422 64.722C37.218 65.2547 36.9403 65.708 36.589 66.082C36.2377 66.4447 35.8297 66.7223 35.365 66.915C34.9117 67.1077 34.43 67.204 33.92 67.204ZM33.92 66.048C34.2713 66.048 34.5943 65.9743 34.889 65.827C35.1837 65.6683 35.433 65.453 35.637 65.181C35.8523 64.8977 36.0167 64.5633 36.13 64.178C36.2433 63.7927 36.3 63.362 36.3 62.886C36.3 62.41 36.2433 61.9793 36.13 61.594C36.0167 61.1973 35.8523 60.8573 35.637 60.574C35.433 60.2907 35.1837 60.0753 34.889 59.928C34.5943 59.7693 34.2713 59.69 33.92 59.69C33.5687 59.69 33.2457 59.7693 32.951 59.928C32.6563 60.0753 32.4013 60.2907 32.186 60.574C31.982 60.8573 31.8233 61.1973 31.71 61.594C31.5967 61.9793 31.54 62.41 31.54 62.886C31.54 63.362 31.5967 63.7927 31.71 64.178C31.8233 64.5633 31.982 64.8977 32.186 65.181C32.4013 65.453 32.6563 65.6683 32.951 65.827C33.2457 65.9743 33.5687 66.048 33.92 66.048ZM39.9209 67V58.738H41.0769L41.1959 60.234H41.2469C41.5302 59.7127 41.8702 59.299 42.2669 58.993C42.6749 58.687 43.1169 58.534 43.5929 58.534C43.9215 58.534 44.2162 58.5907 44.4769 58.704L44.2049 59.928C44.0689 59.8827 43.9442 59.8487 43.8309 59.826C43.7175 59.8033 43.5759 59.792 43.4059 59.792C43.0545 59.792 42.6862 59.9337 42.3009 60.217C41.9269 60.5003 41.5982 60.9933 41.3149 61.696V67H39.9209ZM52.8727 67.204C52.4874 67.204 52.0851 67.1133 51.6657 66.932C51.2577 66.7393 50.8724 66.4787 50.5097 66.15H50.4587L50.3397 67H49.2177V54.896H50.6117V58.194L50.5777 59.69C50.9517 59.3613 51.3597 59.0893 51.8017 58.874C52.2437 58.6473 52.6971 58.534 53.1617 58.534C53.6944 58.534 54.1647 58.636 54.5727 58.84C54.9807 59.0327 55.3207 59.316 55.5927 59.69C55.8761 60.0527 56.0857 60.4947 56.2217 61.016C56.3691 61.526 56.4427 62.0983 56.4427 62.733C56.4427 63.4357 56.3464 64.0647 56.1537 64.62C55.9611 65.1753 55.7004 65.6457 55.3717 66.031C55.0431 66.4163 54.6634 66.711 54.2327 66.915C53.8021 67.1077 53.3487 67.204 52.8727 67.204ZM52.6347 66.031C52.9747 66.031 53.2864 65.9573 53.5697 65.81C53.8644 65.6513 54.1137 65.436 54.3177 65.164C54.5331 64.8807 54.6974 64.535 54.8107 64.127C54.9354 63.719 54.9977 63.26 54.9977 62.75C54.9977 62.2967 54.9581 61.883 54.8787 61.509C54.7994 61.135 54.6691 60.8177 54.4877 60.557C54.3177 60.285 54.0911 60.0753 53.8077 59.928C53.5357 59.7807 53.2071 59.707 52.8217 59.707C52.1531 59.707 51.4164 60.081 50.6117 60.829V65.164C50.9744 65.4813 51.3314 65.708 51.6827 65.844C52.0454 65.9687 52.3627 66.031 52.6347 66.031ZM60.2858 67.204C59.5945 67.204 59.0165 67 58.5518 66.592C58.0985 66.184 57.8718 65.606 57.8718 64.858C57.8718 63.9513 58.2741 63.26 59.0788 62.784C59.8835 62.2967 61.1698 61.9567 62.9378 61.764C62.9378 61.5033 62.9095 61.2483 62.8528 60.999C62.8075 60.7497 62.7225 60.5287 62.5978 60.336C62.4731 60.1433 62.2975 59.9903 62.0708 59.877C61.8555 59.7523 61.5778 59.69 61.2378 59.69C60.7618 59.69 60.3141 59.7807 59.8948 59.962C59.4755 60.1433 59.1015 60.3473 58.7728 60.574L58.2288 59.605C58.6141 59.3557 59.0845 59.1177 59.6398 58.891C60.1951 58.653 60.8071 58.534 61.4758 58.534C62.4845 58.534 63.2155 58.8457 63.6688 59.469C64.1221 60.081 64.3488 60.9027 64.3488 61.934V67H63.1928L63.0738 66.014H63.0228C62.6261 66.3427 62.2011 66.626 61.7478 66.864C61.2945 67.0907 60.8071 67.204 60.2858 67.204ZM60.6938 66.082C61.0905 66.082 61.4645 65.9913 61.8158 65.81C62.1671 65.6173 62.5411 65.3397 62.9378 64.977V62.682C62.2465 62.7727 61.6628 62.8803 61.1868 63.005C60.7221 63.1297 60.3425 63.277 60.0478 63.447C59.7645 63.617 59.5548 63.8153 59.4188 64.042C59.2941 64.2573 59.2318 64.4953 59.2318 64.756C59.2318 65.232 59.3735 65.572 59.6568 65.776C59.9401 65.98 60.2858 66.082 60.6938 66.082ZM69.7702 67.204C68.7275 67.204 67.8945 66.83 67.2712 66.082C66.6592 65.334 66.3532 64.2687 66.3532 62.886C66.3532 62.2173 66.4495 61.6167 66.6422 61.084C66.8462 60.54 67.1125 60.081 67.4412 59.707C67.7699 59.333 68.1495 59.044 68.5802 58.84C69.0109 58.636 69.4642 58.534 69.9402 58.534C70.4162 58.534 70.8299 58.619 71.1812 58.789C71.5325 58.959 71.8895 59.1913 72.2522 59.486L72.1842 58.075V54.896H73.5952V67H72.4392L72.3202 66.031H72.2692C71.9405 66.3483 71.5609 66.626 71.1302 66.864C70.7109 67.0907 70.2575 67.204 69.7702 67.204ZM70.0762 66.031C70.4615 66.031 70.8242 65.9403 71.1642 65.759C71.5042 65.5663 71.8442 65.2773 72.1842 64.892V60.574C71.8329 60.2567 71.4929 60.0357 71.1642 59.911C70.8469 59.775 70.5182 59.707 70.1782 59.707C69.8495 59.707 69.5379 59.7863 69.2432 59.945C68.9599 60.0923 68.7105 60.3077 68.4952 60.591C68.2799 60.863 68.1099 61.1917 67.9852 61.577C67.8605 61.9623 67.7982 62.393 67.7982 62.869C67.7982 63.8663 67.9965 64.6427 68.3932 65.198C68.7899 65.7533 69.3509 66.031 70.0762 66.031Z" fill="black"/>
</svg>
