<svg width="95" height="72" viewBox="0 0 95 72" fill="none" xmlns="http://www.w3.org/2000/svg">
<path d="M35.5349 45V33.848H38.8499C39.4165 33.848 39.9322 33.899 40.3969 34.001C40.8729 34.103 41.2752 34.2617 41.6039 34.477C41.9439 34.6923 42.2045 34.9757 42.3859 35.327C42.5786 35.667 42.6749 36.0807 42.6749 36.568C42.6749 37.1233 42.5332 37.6277 42.2499 38.081C41.9779 38.523 41.5755 38.829 41.0429 38.999V39.067C41.7229 39.1917 42.2726 39.475 42.6919 39.917C43.1112 40.359 43.3209 40.9653 43.3209 41.736C43.3209 42.28 43.2189 42.756 43.0149 43.164C42.8109 43.572 42.5219 43.912 42.1479 44.184C41.7739 44.456 41.3262 44.66 40.8049 44.796C40.2835 44.932 39.7112 45 39.0879 45H35.5349ZM36.9459 38.591H38.5949C39.5469 38.591 40.2325 38.4267 40.6519 38.098C41.0712 37.7693 41.2809 37.3217 41.2809 36.755C41.2809 36.109 41.0599 35.65 40.6179 35.378C40.1872 35.106 39.5355 34.97 38.6629 34.97H36.9459V38.591ZM36.9459 43.878H38.8839C39.8472 43.878 40.5952 43.7023 41.1279 43.351C41.6605 42.9883 41.9269 42.433 41.9269 41.685C41.9269 40.9937 41.6662 40.4893 41.1449 40.172C40.6235 39.8433 39.8699 39.679 38.8839 39.679H36.9459V43.878ZM47.297 45.204C46.6057 45.204 46.0277 45 45.563 44.592C45.1097 44.184 44.883 43.606 44.883 42.858C44.883 41.9513 45.2854 41.26 46.09 40.784C46.8947 40.2967 48.181 39.9567 49.949 39.764C49.949 39.5033 49.9207 39.2483 49.864 38.999C49.8187 38.7497 49.7337 38.5287 49.609 38.336C49.4844 38.1433 49.3087 37.9903 49.082 37.877C48.8667 37.7523 48.589 37.69 48.249 37.69C47.773 37.69 47.3254 37.7807 46.906 37.962C46.4867 38.1433 46.1127 38.3473 45.784 38.574L45.24 37.605C45.6254 37.3557 46.0957 37.1177 46.651 36.891C47.2064 36.653 47.8184 36.534 48.487 36.534C49.4957 36.534 50.2267 36.8457 50.68 37.469C51.1334 38.081 51.36 38.9027 51.36 39.934V45H50.204L50.085 44.014H50.034C49.6374 44.3427 49.2124 44.626 48.759 44.864C48.3057 45.0907 47.8184 45.204 47.297 45.204ZM47.705 44.082C48.1017 44.082 48.4757 43.9913 48.827 43.81C49.1784 43.6173 49.5524 43.3397 49.949 42.977V40.682C49.2577 40.7727 48.674 40.8803 48.198 41.005C47.7334 41.1297 47.3537 41.277 47.059 41.447C46.7757 41.617 46.566 41.8153 46.43 42.042C46.3054 42.2573 46.243 42.4953 46.243 42.756C46.243 43.232 46.3847 43.572 46.668 43.776C46.9514 43.98 47.297 44.082 47.705 44.082ZM56.7814 45.204C55.7388 45.204 54.9058 44.83 54.2824 44.082C53.6704 43.334 53.3644 42.2687 53.3644 40.886C53.3644 40.2173 53.4608 39.6167 53.6534 39.084C53.8574 38.54 54.1238 38.081 54.4524 37.707C54.7811 37.333 55.1608 37.044 55.5914 36.84C56.0221 36.636 56.4754 36.534 56.9514 36.534C57.4274 36.534 57.8411 36.619 58.1924 36.789C58.5438 36.959 58.9008 37.1913 59.2634 37.486L59.1954 36.075V32.896H60.6064V45H59.4504L59.3314 44.031H59.2804C58.9518 44.3483 58.5721 44.626 58.1414 44.864C57.7221 45.0907 57.2688 45.204 56.7814 45.204ZM57.0874 44.031C57.4728 44.031 57.8354 43.9403 58.1754 43.759C58.5154 43.5663 58.8554 43.2773 59.1954 42.892V38.574C58.8441 38.2567 58.5041 38.0357 58.1754 37.911C57.8581 37.775 57.5294 37.707 57.1894 37.707C56.8608 37.707 56.5491 37.7863 56.2544 37.945C55.9711 38.0923 55.7218 38.3077 55.5064 38.591C55.2911 38.863 55.1211 39.1917 54.9964 39.577C54.8718 39.9623 54.8094 40.393 54.8094 40.869C54.8094 41.8663 55.0078 42.6427 55.4044 43.198C55.8011 43.7533 56.3621 44.031 57.0874 44.031Z" fill="black"/>
<path d="M44.25 11.25C44.6478 11.25 45.0294 11.092 45.3107 10.8107C45.592 10.5294 45.75 10.1478 45.75 9.75C45.75 9.35218 45.592 8.97064 45.3107 8.68934C45.0294 8.40804 44.6478 8.25 44.25 8.25C43.8522 8.25 43.4706 8.40804 43.1893 8.68934C42.908 8.97064 42.75 9.35218 42.75 9.75C42.75 10.1478 42.908 10.5294 43.1893 10.8107C43.4706 11.092 43.8522 11.25 44.25 11.25Z" fill="black"/>
<path d="M53.25 9.75C53.25 10.1478 53.092 10.5294 52.8107 10.8107C52.5294 11.092 52.1478 11.25 51.75 11.25C51.3522 11.25 50.9706 11.092 50.6893 10.8107C50.408 10.5294 50.25 10.1478 50.25 9.75C50.25 9.35218 50.408 8.97064 50.6893 8.68934C50.9706 8.40804 51.3522 8.25 51.75 8.25C52.1478 8.25 52.5294 8.40804 52.8107 8.68934C53.092 8.97064 53.25 9.35218 53.25 9.75V9.75Z" fill="black"/>
<path d="M53.3429 17.085C53.1884 17.2085 52.9914 17.2659 52.7948 17.2449C52.5981 17.2238 52.4177 17.1259 52.2929 16.9725L52.2884 16.968C52.2234 16.8961 52.1549 16.8275 52.0829 16.7625C51.8491 16.552 51.5942 16.366 51.3224 16.2075C50.6309 15.8025 49.5419 15.375 48.0029 15.375C46.4639 15.375 45.3734 15.801 44.6789 16.209C44.4067 16.3676 44.1514 16.5536 43.9169 16.764C43.8445 16.829 43.7754 16.8975 43.7099 16.9695L43.7054 16.974C43.6434 17.0505 43.5669 17.1141 43.4802 17.161C43.3936 17.208 43.2986 17.2374 43.2006 17.2477C43.1026 17.2579 43.0036 17.2487 42.9091 17.2207C42.8147 17.1927 42.7267 17.1463 42.6502 17.0842C42.5736 17.0222 42.5101 16.9457 42.4631 16.8591C42.4162 16.7725 42.3867 16.6774 42.3765 16.5795C42.3663 16.4815 42.3754 16.3824 42.4035 16.288C42.4315 16.1935 42.4779 16.1055 42.5399 16.029L43.1249 16.5L42.5399 16.0305V16.029L42.5429 16.0275L42.5459 16.0245L42.5534 16.0155L42.5744 15.9885L42.6479 15.9075C42.7079 15.843 42.7949 15.7545 42.9089 15.6525C43.1369 15.4455 43.4714 15.1785 43.9199 14.916C44.8199 14.3865 46.1699 13.875 48.0029 13.875C49.8344 13.875 51.1829 14.385 52.0829 14.916C52.5329 15.18 52.8659 15.4455 53.0924 15.651C53.2095 15.7579 53.3207 15.871 53.4254 15.99L53.4479 16.0155L53.4554 16.0245L53.4584 16.029C53.4584 16.029 53.4599 16.032 52.8749 16.5L53.4599 16.032C53.5838 16.1872 53.6411 16.3853 53.6192 16.5827C53.5972 16.7801 53.4979 16.9607 53.3429 17.085V17.085Z" fill="black"/>
<path d="M48 0C44.8174 0 41.7652 1.26428 39.5147 3.51472C37.2643 5.76516 36 8.8174 36 12C36 15.1826 37.2643 18.2348 39.5147 20.4853C41.7652 22.7357 44.8174 24 48 24C51.1826 24 54.2348 22.7357 56.4853 20.4853C58.7357 18.2348 60 15.1826 60 12C60 8.8174 58.7357 5.76516 56.4853 3.51472C54.2348 1.26428 51.1826 0 48 0V0ZM37.5 12C37.5 10.6211 37.7716 9.25574 38.2993 7.98182C38.8269 6.70791 39.6004 5.55039 40.5754 4.57538C41.5504 3.60036 42.7079 2.82694 43.9818 2.29926C45.2557 1.77159 46.6211 1.5 48 1.5C49.3789 1.5 50.7443 1.77159 52.0182 2.29926C53.2921 2.82694 54.4496 3.60036 55.4246 4.57538C56.3996 5.55039 57.1731 6.70791 57.7007 7.98182C58.2284 9.25574 58.5 10.6211 58.5 12C58.5 14.7848 57.3938 17.4555 55.4246 19.4246C53.4555 21.3938 50.7848 22.5 48 22.5C45.2152 22.5 42.5445 21.3938 40.5754 19.4246C38.6062 17.4555 37.5 14.7848 37.5 12Z" fill="black"/>
</svg>
