<svg width="95" height="72" viewBox="0 0 95 72" fill="none" xmlns="http://www.w3.org/2000/svg">
<path d="M47 22.5C44.2152 22.5 41.5445 21.3938 39.5754 19.4246C37.6062 17.4555 36.5 14.7848 36.5 12C36.5 9.21523 37.6062 6.54451 39.5754 4.57538C41.5445 2.60625 44.2152 1.5 47 1.5C49.7848 1.5 52.4555 2.60625 54.4246 4.57538C56.3938 6.54451 57.5 9.21523 57.5 12C57.5 14.7848 56.3938 17.4555 54.4246 19.4246C52.4555 21.3938 49.7848 22.5 47 22.5ZM47 24C50.1826 24 53.2348 22.7357 55.4853 20.4853C57.7357 18.2348 59 15.1826 59 12C59 8.8174 57.7357 5.76516 55.4853 3.51472C53.2348 1.26428 50.1826 0 47 0C43.8174 0 40.7652 1.26428 38.5147 3.51472C36.2643 5.76516 35 8.8174 35 12C35 15.1826 36.2643 18.2348 38.5147 20.4853C40.7652 22.7357 43.8174 24 47 24V24Z" fill="black"/>
<path d="M41.4275 14.3505C41.5997 14.251 41.8044 14.2241 41.9966 14.2756C42.1887 14.3271 42.3525 14.4527 42.452 14.625C42.9126 15.4235 43.5755 16.0866 44.374 16.5474C45.1724 17.0082 46.0781 17.2505 47 17.25C47.9218 17.2505 48.8276 17.0082 49.626 16.5474C50.4244 16.0866 51.0873 15.4235 51.548 14.625C51.5969 14.539 51.6623 14.4636 51.7404 14.4029C51.8186 14.3423 51.908 14.2978 52.0035 14.2719C52.0989 14.246 52.1985 14.2392 52.2966 14.2519C52.3947 14.2647 52.4893 14.2967 52.575 14.3462C52.6606 14.3956 52.7357 14.4615 52.7957 14.5401C52.8558 14.6187 52.8998 14.7084 52.925 14.804C52.9503 14.8996 52.9564 14.9993 52.943 15.0973C52.9296 15.1953 52.897 15.2897 52.847 15.375C52.2547 16.4015 51.4024 17.2539 50.376 17.8464C49.3495 18.4389 48.1851 18.7505 47 18.75C45.8148 18.7505 44.6504 18.4389 43.624 17.8464C42.5975 17.2539 41.7453 16.4015 41.153 15.375C41.0535 15.2027 41.0266 14.998 41.078 14.8059C41.1295 14.6138 41.2552 14.45 41.4275 14.3505ZM45.5 9.75C45.5 10.992 44.828 12 44 12C43.172 12 42.5 10.992 42.5 9.75C42.5 8.508 43.172 7.5 44 7.5C44.828 7.5 45.5 8.508 45.5 9.75ZM51.5 9.75C51.5 10.992 50.828 12 50 12C49.172 12 48.5 10.992 48.5 9.75C48.5 8.508 49.172 7.5 50 7.5C50.828 7.5 51.5 8.508 51.5 9.75Z" fill="black"/>
<path d="M34.2412 45.204C33.5045 45.204 32.8245 45.0737 32.2012 44.813C31.5892 44.5523 31.0622 44.1783 30.6202 43.691C30.1782 43.1923 29.8325 42.586 29.5832 41.872C29.3339 41.1467 29.2092 40.3307 29.2092 39.424C29.2092 38.5287 29.3339 37.724 29.5832 37.01C29.8439 36.296 30.2009 35.6897 30.6542 35.191C31.1075 34.6923 31.6459 34.3127 32.2692 34.052C32.9039 33.78 33.5895 33.644 34.3262 33.644C34.7115 33.644 35.0629 33.6837 35.3802 33.763C35.7089 33.8423 36.0035 33.95 36.2642 34.086C36.5362 34.2107 36.7742 34.358 36.9782 34.528C37.1935 34.6867 37.3805 34.851 37.5392 35.021L36.7572 35.939C36.4739 35.6443 36.1452 35.395 35.7712 35.191C35.3972 34.987 34.9269 34.885 34.3602 34.885C33.7935 34.885 33.2835 34.9927 32.8302 35.208C32.3769 35.412 31.9915 35.7123 31.6742 36.109C31.3569 36.4943 31.1075 36.9647 30.9262 37.52C30.7562 38.0753 30.6712 38.6987 30.6712 39.39C30.6712 40.0927 30.7505 40.7273 30.9092 41.294C31.0792 41.8493 31.3172 42.3253 31.6232 42.722C31.9405 43.1187 32.3259 43.4247 32.7792 43.64C33.2439 43.8553 33.7765 43.963 34.3772 43.963C34.7739 43.963 35.1479 43.9063 35.4992 43.793C35.8619 43.6683 36.1565 43.504 36.3832 43.3V40.393H34.0202V39.22H37.6752V43.912C37.3125 44.286 36.8365 44.5977 36.2472 44.847C35.6579 45.085 34.9892 45.204 34.2412 45.204ZM43.4244 45.204C42.9144 45.204 42.427 45.1077 41.9624 44.915C41.509 44.7223 41.1067 44.4447 40.7554 44.082C40.404 43.708 40.1207 43.2547 39.9054 42.722C39.7014 42.178 39.5994 41.566 39.5994 40.886C39.5994 40.1947 39.7014 39.5827 39.9054 39.05C40.1207 38.506 40.404 38.047 40.7554 37.673C41.1067 37.299 41.509 37.0157 41.9624 36.823C42.427 36.6303 42.9144 36.534 43.4244 36.534C43.9344 36.534 44.416 36.6303 44.8694 36.823C45.334 37.0157 45.742 37.299 46.0934 37.673C46.4447 38.047 46.7224 38.506 46.9264 39.05C47.1417 39.5827 47.2494 40.1947 47.2494 40.886C47.2494 41.566 47.1417 42.178 46.9264 42.722C46.7224 43.2547 46.4447 43.708 46.0934 44.082C45.742 44.4447 45.334 44.7223 44.8694 44.915C44.416 45.1077 43.9344 45.204 43.4244 45.204ZM43.4244 44.048C43.7757 44.048 44.0987 43.9743 44.3934 43.827C44.688 43.6683 44.9374 43.453 45.1414 43.181C45.3567 42.8977 45.521 42.5633 45.6344 42.178C45.7477 41.7927 45.8044 41.362 45.8044 40.886C45.8044 40.41 45.7477 39.9793 45.6344 39.594C45.521 39.1973 45.3567 38.8573 45.1414 38.574C44.9374 38.2907 44.688 38.0753 44.3934 37.928C44.0987 37.7693 43.7757 37.69 43.4244 37.69C43.073 37.69 42.75 37.7693 42.4554 37.928C42.1607 38.0753 41.9057 38.2907 41.6904 38.574C41.4864 38.8573 41.3277 39.1973 41.2144 39.594C41.101 39.9793 41.0444 40.41 41.0444 40.886C41.0444 41.362 41.101 41.7927 41.2144 42.178C41.3277 42.5633 41.4864 42.8977 41.6904 43.181C41.9057 43.453 42.1607 43.6683 42.4554 43.827C42.75 43.9743 43.073 44.048 43.4244 44.048ZM52.6383 45.204C52.1283 45.204 51.6409 45.1077 51.1763 44.915C50.7229 44.7223 50.3206 44.4447 49.9693 44.082C49.6179 43.708 49.3346 43.2547 49.1193 42.722C48.9153 42.178 48.8133 41.566 48.8133 40.886C48.8133 40.1947 48.9153 39.5827 49.1193 39.05C49.3346 38.506 49.6179 38.047 49.9693 37.673C50.3206 37.299 50.7229 37.0157 51.1763 36.823C51.6409 36.6303 52.1283 36.534 52.6383 36.534C53.1483 36.534 53.6299 36.6303 54.0833 36.823C54.5479 37.0157 54.9559 37.299 55.3073 37.673C55.6586 38.047 55.9363 38.506 56.1403 39.05C56.3556 39.5827 56.4633 40.1947 56.4633 40.886C56.4633 41.566 56.3556 42.178 56.1403 42.722C55.9363 43.2547 55.6586 43.708 55.3073 44.082C54.9559 44.4447 54.5479 44.7223 54.0833 44.915C53.6299 45.1077 53.1483 45.204 52.6383 45.204ZM52.6383 44.048C52.9896 44.048 53.3126 43.9743 53.6073 43.827C53.9019 43.6683 54.1513 43.453 54.3553 43.181C54.5706 42.8977 54.7349 42.5633 54.8483 42.178C54.9616 41.7927 55.0183 41.362 55.0183 40.886C55.0183 40.41 54.9616 39.9793 54.8483 39.594C54.7349 39.1973 54.5706 38.8573 54.3553 38.574C54.1513 38.2907 53.9019 38.0753 53.6073 37.928C53.3126 37.7693 52.9896 37.69 52.6383 37.69C52.2869 37.69 51.9639 37.7693 51.6693 37.928C51.3746 38.0753 51.1196 38.2907 50.9043 38.574C50.7003 38.8573 50.5416 39.1973 50.4283 39.594C50.3149 39.9793 50.2583 40.41 50.2583 40.886C50.2583 41.362 50.3149 41.7927 50.4283 42.178C50.5416 42.5633 50.7003 42.8977 50.9043 43.181C51.1196 43.453 51.3746 43.6683 51.6693 43.827C51.9639 43.9743 52.2869 44.048 52.6383 44.048ZM61.4611 45.204C60.4185 45.204 59.5855 44.83 58.9621 44.082C58.3501 43.334 58.0441 42.2687 58.0441 40.886C58.0441 40.2173 58.1405 39.6167 58.3331 39.084C58.5371 38.54 58.8035 38.081 59.1321 37.707C59.4608 37.333 59.8405 37.044 60.2711 36.84C60.7018 36.636 61.1551 36.534 61.6311 36.534C62.1071 36.534 62.5208 36.619 62.8721 36.789C63.2235 36.959 63.5805 37.1913 63.9431 37.486L63.8751 36.075V32.896H65.2861V45H64.1301L64.0111 44.031H63.9601C63.6315 44.3483 63.2518 44.626 62.8211 44.864C62.4018 45.0907 61.9485 45.204 61.4611 45.204ZM61.7671 44.031C62.1525 44.031 62.5151 43.9403 62.8551 43.759C63.1951 43.5663 63.5351 43.2773 63.8751 42.892V38.574C63.5238 38.2567 63.1838 38.0357 62.8551 37.911C62.5378 37.775 62.2091 37.707 61.8691 37.707C61.5405 37.707 61.2288 37.7863 60.9341 37.945C60.6508 38.0923 60.4015 38.3077 60.1861 38.591C59.9708 38.863 59.8008 39.1917 59.6761 39.577C59.5515 39.9623 59.4891 40.393 59.4891 40.869C59.4891 41.8663 59.6875 42.6427 60.0841 43.198C60.4808 43.7533 61.0418 44.031 61.7671 44.031Z" fill="black"/>
</svg>
